<svg width="139" height="139" viewBox="0 0 139 139" fill="none" xmlns="http://www.w3.org/2000/svg">
<rect width="139" height="139" rx="26" fill="white"/>
<path fill-rule="evenodd" clip-rule="evenodd" d="M60.8766 40.6604C60.4755 40.6931 59.6919 40.8702 59.2572 41.0265C58.0814 41.4488 57.0389 42.2688 56.2976 43.3542C56.2155 43.4743 55.8191 44.1884 55.4167 44.9412C53.1529 49.1755 51.1289 52.9557 51.0449 53.1064L50.9487 53.2789H49.4391H47.9296L47.8792 52.9606C47.7461 52.121 47.1389 51.4236 46.3377 51.1901C46.1595 51.1382 45.8939 51.1169 45.4268 51.1169H44.7674L44.6703 50.9608C44.5459 50.7609 44.3341 50.6027 44.0421 50.4918C43.8302 50.4113 43.6744 50.4038 42.2127 50.4038C40.784 50.4038 40.5935 50.4125 40.4127 50.4861C40.1506 50.5928 39.9336 50.7591 39.7975 50.9575L39.6887 51.1162L39.0603 51.1165C38.1545 51.117 37.7839 51.2406 37.2927 51.7059C36.8831 52.094 36.6089 52.6525 36.6089 53.0988V53.2701L36.1111 53.3004C35.8373 53.3171 35.4257 53.361 35.1964 53.3978C32.4206 53.8446 30.2233 55.9141 29.6082 58.661L29.5 59.144V75.8193C29.5 91.978 29.5027 92.5074 29.5873 92.9085C29.723 93.552 29.9173 94.0946 30.2209 94.6781C31.1629 96.4884 32.8304 97.7612 34.8738 98.2294L35.3353 98.3352L69.1665 98.349C92.3986 98.3586 103.14 98.3478 103.454 98.315C106.162 98.0304 108.481 96.0906 109.246 93.4702C109.524 92.5173 109.508 93.6323 109.493 75.6122L109.479 59.144L109.376 58.7016C108.946 56.8508 107.943 55.4049 106.391 54.3945C105.644 53.9082 104.826 53.5893 103.808 53.3868C103.449 53.3154 102.738 53.307 95.7 53.2919L87.9855 53.2753L87.6002 52.5526C87.3883 52.1551 87.0639 51.5504 86.8792 51.2089C86.5807 50.6566 85.4563 48.5572 84.1815 46.1718C82.5798 43.1748 82.5275 43.0904 81.856 42.4213C81.4295 41.9962 80.7969 41.5319 80.3116 41.2876C79.9404 41.1007 79.2598 40.8706 78.7439 40.7574L78.2668 40.6528L69.6759 40.6481C64.9509 40.6455 60.9912 40.651 60.8766 40.6604ZM71.4821 54.128C73.9011 54.4151 75.9315 55.0132 78.048 56.0621C80.0015 57.0302 81.4857 58.1019 83.1083 59.7159C84.1242 60.7264 84.7879 61.5219 85.4903 62.571C87.2947 65.2661 88.2871 67.9653 88.6952 71.2882C88.7941 72.0934 88.8076 74.3372 88.7183 75.1292C88.3396 78.489 87.305 81.3529 85.506 84.022C82.4038 88.6247 77.3794 91.7295 71.9031 92.428C67.6774 92.9669 63.3821 92.1283 59.7651 90.0583C54.491 87.04 50.978 81.8888 50.1329 75.9343C50.0826 75.58 50.0163 74.8348 49.9855 74.2782C49.8684 72.1568 50.1188 70.0179 50.7289 67.9298C51.2928 66.0001 52.0516 64.3846 53.2135 62.64C53.9002 61.6091 54.575 60.7826 55.4806 59.8633C57.1027 58.2169 58.7197 57.0425 60.7376 56.0449C63.0944 54.8799 65.3797 54.2645 68.1707 54.0436C68.7022 54.0016 70.8854 54.0572 71.4821 54.128ZM102.664 57.6758C102.848 57.7159 103.196 57.8426 103.438 57.9574C103.818 58.1379 103.934 58.2228 104.295 58.586C104.989 59.2828 105.262 59.9333 105.264 60.892C105.265 61.4891 105.177 61.8812 104.932 62.3629C104.535 63.1437 103.822 63.754 102.991 64.0246C102.62 64.1452 102.52 64.1581 101.956 64.1581C101.424 64.1581 101.282 64.142 101.006 64.0506C100.006 63.7192 99.2553 63.0315 98.8854 62.109C98.7051 61.6594 98.6567 61.4005 98.6576 60.892C98.6592 59.9926 98.9772 59.2276 99.6157 58.5875C100.429 57.7718 101.559 57.4341 102.664 57.6758ZM68.055 59.8611C63.8967 60.3224 60.3681 62.4325 58.0618 65.8371C55.7738 69.2143 55.1668 73.5952 56.4523 77.4523C57.1668 79.5964 58.1975 81.2625 59.7841 82.8385C60.8631 83.9102 61.8978 84.6588 63.2134 85.3196C65.2554 86.3454 67.1041 86.7821 69.398 86.7809C71.2075 86.7799 72.7382 86.4942 74.3644 85.8538C77.4965 84.6204 80.0446 82.2877 81.5318 79.2923C82.4435 77.4561 82.872 75.7894 82.9513 73.7722C83.0989 70.0119 81.6303 66.3722 78.8845 63.6935C76.7825 61.6428 74.2639 60.3921 71.3315 59.9427C70.6252 59.8345 68.7221 59.7871 68.055 59.8611Z" fill="#979797"/>
</svg>
