<svg width="40" height="32" viewBox="0 0 40 32" fill="none" xmlns="http://www.w3.org/2000/svg">
<path fill-rule="evenodd" clip-rule="evenodd" d="M29.8069 3.32592C30.7505 3.57904 31.4543 4.18189 31.8845 5.10554L32.1315 5.63588V16.0016V26.3673L31.8845 26.8977C31.4543 27.8213 30.7505 28.4242 29.8069 28.6773C29.3209 28.8077 27.8075 28.8262 17.649 28.8262C17.0762 28.8262 16.5302 28.8262 16.0095 28.8263C6.34788 28.8274 5.42725 28.8275 4.76931 28.4118C4.70001 28.368 4.63362 28.3196 4.56024 28.2662C4.52272 28.2388 4.48336 28.2101 4.44085 28.18C3.91073 27.8047 3.52636 27.2936 3.27564 26.6306C3.13371 26.255 3.12002 25.3205 3.12002 16.0016C3.12002 6.68846 3.1338 5.74803 3.27546 5.37264C3.65182 4.3757 4.48034 3.59707 5.44839 3.33074C6.24199 3.11234 28.9937 3.1078 29.8069 3.32592ZM6.70571 7.50779C6.85938 7.28186 7.1698 6.99606 7.39555 6.87273C7.80348 6.6497 7.82714 6.64835 11.1938 6.64835C14.0409 6.64835 14.6366 6.67217 14.9265 6.79761C15.3868 6.99664 15.6817 7.29044 15.8897 7.75724C16.0469 8.10996 16.0617 8.44427 16.0617 11.6625C16.0617 14.8807 16.0469 15.215 15.8897 15.5677C15.6817 16.0345 15.3868 16.3283 14.9265 16.5273C14.6366 16.6528 14.0409 16.6766 11.1938 16.6766C7.82714 16.6766 7.80348 16.6752 7.39555 16.4522C7.1698 16.3289 6.85938 16.0431 6.70571 15.8171L6.4263 15.4065V11.6625V7.91846L6.70571 7.50779ZM18.1151 8.35508C18.1145 7.41869 18.4194 6.90175 19.0655 6.74323C19.4986 6.63707 27.1185 6.63446 27.5597 6.74044C27.7601 6.78855 28.0532 6.96163 28.211 7.12508C28.4746 7.39786 28.5006 7.48387 28.5312 8.17862C28.5697 9.05908 28.4298 9.44083 27.9592 9.73781C27.6748 9.91736 27.4614 9.92613 23.3489 9.92642C23.2841 9.92643 23.2203 9.92643 23.1573 9.92644C19.447 9.92683 18.7937 9.9269 18.4872 9.60093C18.4217 9.53128 18.3721 9.44674 18.3118 9.34413C18.307 9.33601 18.3022 9.32778 18.2973 9.31943C18.1641 9.09341 18.1153 8.83518 18.1151 8.35508ZM18.1147 15.1338C18.1147 14.3187 18.3055 13.9007 18.7905 13.6532C19.0538 13.5187 19.6378 13.4987 23.3318 13.4968C27.1357 13.4948 27.853 13.4899 28.1724 13.8439C28.2509 13.931 28.3053 14.0397 28.3757 14.1755C28.5928 14.5948 28.6049 15.6026 28.3981 16.0537C28.3311 16.1998 28.2861 16.3142 28.2114 16.4036C27.9306 16.7396 27.2299 16.7248 23.3677 16.7248C19.4346 16.7248 18.7813 16.7325 18.4801 16.4106C18.4127 16.3385 18.3629 16.2499 18.2978 16.1409C18.1598 15.9097 18.1147 15.6618 18.1147 15.1338ZM6.46756 23.878C6.13255 23.1139 6.27719 22.1778 6.80434 21.6986L7.13133 21.4014L17.3962 21.4018C27.4127 21.4021 27.6682 21.4067 27.9592 21.5904C28.4314 21.8885 28.5698 22.2685 28.5307 23.1593C28.4981 23.9025 28.4868 23.9351 28.1503 24.2544L27.8034 24.5835H17.5061C5.96966 24.5835 6.80024 24.6365 6.46756 23.878Z" fill="#373737"/>
<path fill-rule="evenodd" clip-rule="evenodd" d="M4.63029 0.189686C3.51304 0.492654 2.7106 0.985291 1.81538 1.91782C0.96795 2.8004 0.583024 3.44057 0.21747 4.5752L0 5.25018V16.0016V26.753L0.21747 27.428C0.581906 28.5591 0.968602 29.2032 1.81538 30.0894C2.44041 30.7435 2.76936 31.0017 3.37269 31.3114C3.44753 31.3499 3.51629 31.3862 3.58131 31.4206C3.70749 31.4873 3.81958 31.5465 3.93471 31.5991C4.85072 32.0175 5.95908 32.015 15.8862 31.9917L17.9284 31.9871L30.3619 31.96L31.107 31.6835C33.338 30.8556 34.9752 29.59 36.0981 27.8253C36.762 26.7819 36.9756 26.2221 37.2617 24.7763C37.448 23.8349 38.9016 15.9465 39.3051 13.6874C39.3761 13.2896 39.5619 12.2551 39.7178 11.3884C39.8738 10.5218 40.0007 9.52375 40 9.17064C39.9968 7.69803 39.4319 6.32571 38.382 5.24054C37.4838 4.31225 36.4958 3.82675 34.878 3.51877C34.7156 3.48782 34.5227 3.28311 34.2472 2.84919C33.7049 1.99535 32.759 1.13533 31.8521 0.671716C31.7779 0.633767 31.71 0.597946 31.6459 0.564136C31.5281 0.501984 31.4231 0.446627 31.3154 0.397329C30.438 -0.00430489 29.3764 -0.00379397 19.6665 0.000879518L17.6025 0.00175314C5.81087 0.0054173 5.28093 0.0131315 4.63029 0.189686ZM29.8069 3.32592C30.7505 3.57904 31.4543 4.18189 31.8845 5.10554L32.1315 5.63588V16.0016V26.3673L31.8845 26.8977C31.4543 27.8213 30.7505 28.4242 29.8069 28.6773C29.3209 28.8077 27.8075 28.8262 17.649 28.8262L16.0095 28.8263C6.34788 28.8274 5.42725 28.8275 4.76931 28.4118C4.70001 28.368 4.63362 28.3196 4.56024 28.2662C4.52272 28.2388 4.48336 28.2101 4.44085 28.18C3.91073 27.8047 3.52636 27.2936 3.27564 26.6306C3.13371 26.255 3.12002 25.3205 3.12002 16.0016C3.12002 6.68846 3.1338 5.74803 3.27546 5.37264C3.65182 4.3757 4.48034 3.59707 5.44839 3.33074C6.24199 3.11234 28.9937 3.1078 29.8069 3.32592Z" fill="#373737"/>
</svg>
