<svg width="280" height="53" viewBox="0 0 280 53" fill="none" xmlns="http://www.w3.org/2000/svg">
<path d="M96.456 35.2325H94.116V19.8725H85.524V35.2325H83.196V18.0365H96.456V35.2325ZM105.089 22.8845C105.977 22.8845 106.777 23.0325 107.489 23.3285C108.201 23.6245 108.809 24.0445 109.313 24.5885C109.817 25.1325 110.201 25.7925 110.465 26.5685C110.737 27.3365 110.873 28.1965 110.873 29.1485C110.873 30.1085 110.737 30.9725 110.465 31.7405C110.201 32.5085 109.817 33.1645 109.313 33.7085C108.809 34.2525 108.201 34.6725 107.489 34.9685C106.777 35.2565 105.977 35.4005 105.089 35.4005C104.193 35.4005 103.385 35.2565 102.665 34.9685C101.953 34.6725 101.345 34.2525 100.841 33.7085C100.337 33.1645 99.9494 32.5085 99.6774 31.7405C99.4134 30.9725 99.2814 30.1085 99.2814 29.1485C99.2814 28.1965 99.4134 27.3365 99.6774 26.5685C99.9494 25.7925 100.337 25.1325 100.841 24.5885C101.345 24.0445 101.953 23.6245 102.665 23.3285C103.385 23.0325 104.193 22.8845 105.089 22.8845ZM105.089 33.7325C106.289 33.7325 107.185 33.3325 107.777 32.5325C108.369 31.7245 108.665 30.6005 108.665 29.1605C108.665 27.7125 108.369 26.5845 107.777 25.7765C107.185 24.9685 106.289 24.5645 105.089 24.5645C104.481 24.5645 103.949 24.6685 103.493 24.8765C103.045 25.0845 102.669 25.3845 102.365 25.7765C102.069 26.1685 101.845 26.6525 101.693 27.2285C101.549 27.7965 101.477 28.4405 101.477 29.1605C101.477 30.6005 101.773 31.7245 102.365 32.5325C102.965 33.3325 103.873 33.7325 105.089 33.7325ZM112.58 24.3245C113.036 23.8925 113.588 23.5445 114.236 23.2805C114.892 23.0165 115.68 22.8845 116.6 22.8845C117.336 22.8845 117.984 22.9765 118.544 23.1605C119.104 23.3365 119.572 23.5725 119.948 23.8685C120.332 24.1645 120.62 24.5045 120.812 24.8885C121.012 25.2645 121.112 25.6565 121.112 26.0645C121.112 26.3045 121.072 26.5565 120.992 26.8205C120.92 27.0845 120.796 27.3365 120.62 27.5765C120.444 27.8165 120.216 28.0405 119.936 28.2485C119.656 28.4565 119.308 28.6245 118.892 28.7525C119.668 28.9845 120.276 29.3565 120.716 29.8685C121.164 30.3805 121.388 31.0085 121.388 31.7525C121.388 32.3125 121.26 32.8205 121.004 33.2765C120.748 33.7245 120.404 34.1085 119.972 34.4285C119.54 34.7405 119.036 34.9805 118.46 35.1485C117.892 35.3165 117.296 35.4005 116.672 35.4005C116.28 35.4005 115.88 35.3645 115.472 35.2925C115.072 35.2205 114.68 35.1085 114.296 34.9565C113.912 34.7965 113.548 34.6005 113.204 34.3685C112.868 34.1365 112.568 33.8565 112.304 33.5285L112.904 32.7485C113 32.6125 113.136 32.5445 113.312 32.5445C113.456 32.5445 113.608 32.6085 113.768 32.7365C113.936 32.8565 114.14 32.9925 114.38 33.1445C114.62 33.2965 114.912 33.4365 115.256 33.5645C115.608 33.6845 116.036 33.7445 116.54 33.7445C116.98 33.7445 117.372 33.6925 117.716 33.5885C118.068 33.4765 118.364 33.3245 118.604 33.1325C118.844 32.9405 119.028 32.7125 119.156 32.4485C119.284 32.1845 119.348 31.8965 119.348 31.5845C119.348 30.9845 119.096 30.5005 118.592 30.1325C118.096 29.7645 117.34 29.5805 116.324 29.5805H114.944V28.1645H116.324C116.764 28.1645 117.16 28.1205 117.512 28.0325C117.864 27.9365 118.164 27.8085 118.412 27.6485C118.66 27.4885 118.848 27.2965 118.976 27.0725C119.104 26.8405 119.168 26.5925 119.168 26.3285C119.168 26.0885 119.112 25.8605 119 25.6445C118.896 25.4285 118.732 25.2405 118.508 25.0805C118.292 24.9205 118.02 24.7925 117.692 24.6965C117.364 24.6005 116.98 24.5525 116.54 24.5525C116.06 24.5525 115.652 24.6005 115.316 24.6965C114.988 24.7925 114.708 24.8965 114.476 25.0085C114.252 25.1205 114.068 25.2245 113.924 25.3205C113.78 25.4165 113.656 25.4645 113.552 25.4645C113.448 25.4645 113.36 25.4445 113.288 25.4045C113.224 25.3645 113.152 25.2805 113.072 25.1525L112.58 24.3245ZM128.798 33.7325C129.598 33.7325 130.23 33.5485 130.694 33.1805C131.158 32.8045 131.39 32.2925 131.39 31.6445C131.39 31.3565 131.346 31.0965 131.258 30.8645C131.17 30.6245 131.026 30.4165 130.826 30.2405C130.626 30.0645 130.358 29.9285 130.022 29.8325C129.694 29.7365 129.29 29.6885 128.81 29.6885H126.182V33.7325H128.798ZM126.182 24.5165V28.3325H128.522C128.874 28.3325 129.197 28.2845 129.493 28.1885C129.798 28.0845 130.058 27.9445 130.274 27.7685C130.49 27.5845 130.658 27.3685 130.778 27.1205C130.898 26.8645 130.958 26.5845 130.958 26.2805C130.958 26.0565 130.918 25.8405 130.838 25.6325C130.758 25.4165 130.622 25.2285 130.43 25.0685C130.238 24.9005 129.986 24.7685 129.674 24.6725C129.362 24.5685 128.978 24.5165 128.522 24.5165H126.182ZM128.582 23.0765C129.334 23.0765 129.978 23.1525 130.514 23.3045C131.05 23.4565 131.49 23.6645 131.834 23.9285C132.178 24.1845 132.43 24.4885 132.59 24.8405C132.75 25.1925 132.83 25.5685 132.83 25.9685C132.83 26.2325 132.794 26.5085 132.722 26.7965C132.65 27.0845 132.522 27.3605 132.338 27.6245C132.162 27.8885 131.918 28.1285 131.606 28.3445C131.302 28.5525 130.918 28.7165 130.454 28.8365C131.382 28.9965 132.098 29.3205 132.602 29.8085C133.106 30.2885 133.358 30.9245 133.358 31.7165C133.358 32.3085 133.238 32.8245 132.998 33.2645C132.766 33.6965 132.442 34.0605 132.026 34.3565C131.618 34.6525 131.138 34.8725 130.586 35.0165C130.034 35.1605 129.442 35.2325 128.81 35.2325H124.13V23.0765H128.582ZM141.16 22.8845C142.048 22.8845 142.848 23.0325 143.56 23.3285C144.272 23.6245 144.88 24.0445 145.384 24.5885C145.888 25.1325 146.272 25.7925 146.536 26.5685C146.808 27.3365 146.944 28.1965 146.944 29.1485C146.944 30.1085 146.808 30.9725 146.536 31.7405C146.272 32.5085 145.888 33.1645 145.384 33.7085C144.88 34.2525 144.272 34.6725 143.56 34.9685C142.848 35.2565 142.048 35.4005 141.16 35.4005C140.264 35.4005 139.456 35.2565 138.736 34.9685C138.024 34.6725 137.416 34.2525 136.912 33.7085C136.408 33.1645 136.02 32.5085 135.748 31.7405C135.484 30.9725 135.352 30.1085 135.352 29.1485C135.352 28.1965 135.484 27.3365 135.748 26.5685C136.02 25.7925 136.408 25.1325 136.912 24.5885C137.416 24.0445 138.024 23.6245 138.736 23.3285C139.456 23.0325 140.264 22.8845 141.16 22.8845ZM141.16 33.7325C142.36 33.7325 143.256 33.3325 143.848 32.5325C144.44 31.7245 144.736 30.6005 144.736 29.1605C144.736 27.7125 144.44 26.5845 143.848 25.7765C143.256 24.9685 142.36 24.5645 141.16 24.5645C140.552 24.5645 140.02 24.6685 139.564 24.8765C139.116 25.0845 138.74 25.3845 138.436 25.7765C138.14 26.1685 137.916 26.6525 137.764 27.2285C137.62 27.7965 137.548 28.4405 137.548 29.1605C137.548 30.6005 137.844 31.7245 138.436 32.5325C139.036 33.3325 139.944 33.7325 141.16 33.7325ZM159.781 23.0765V35.2325H157.633V29.5445H151.801V35.2325H149.653V23.0765H151.801V27.9245H157.633V23.0765H159.781ZM173.604 23.0765V35.2325H171.468V26.9765C171.468 26.8165 171.476 26.6445 171.492 26.4605C171.508 26.2765 171.528 26.0925 171.552 25.9085C171.48 26.0685 171.408 26.2165 171.336 26.3525C171.264 26.4885 171.188 26.6125 171.108 26.7245L165.24 34.7045C165.152 34.8325 165.04 34.9565 164.904 35.0765C164.776 35.1885 164.632 35.2445 164.472 35.2445H163.176V23.0885H165.324V31.3445C165.324 31.4965 165.316 31.6645 165.3 31.8485C165.284 32.0245 165.264 32.2045 165.24 32.3885C165.312 32.2365 165.384 32.0965 165.456 31.9685C165.528 31.8325 165.6 31.7085 165.672 31.5965L171.54 23.6165C171.628 23.4885 171.74 23.3685 171.876 23.2565C172.012 23.1365 172.16 23.0765 172.32 23.0765H173.604ZM187.085 24.7085H182.417V35.2325H180.281V24.7085H175.613V23.0765H187.085V24.7085ZM193.79 33.6725C194.222 33.6725 194.594 33.6205 194.906 33.5165C195.226 33.4045 195.49 33.2525 195.698 33.0605C195.906 32.8605 196.062 32.6285 196.166 32.3645C196.27 32.1005 196.322 31.8125 196.322 31.5005C196.322 31.2125 196.278 30.9445 196.19 30.6965C196.102 30.4405 195.954 30.2165 195.746 30.0245C195.546 29.8325 195.282 29.6805 194.954 29.5685C194.626 29.4565 194.226 29.4005 193.754 29.4005H191.174V33.6725H193.79ZM193.754 27.8405C194.594 27.8405 195.298 27.9405 195.866 28.1405C196.442 28.3405 196.902 28.6085 197.246 28.9445C197.598 29.2805 197.85 29.6685 198.002 30.1085C198.154 30.5485 198.23 31.0045 198.23 31.4765C198.23 32.0205 198.134 32.5245 197.942 32.9885C197.75 33.4445 197.466 33.8405 197.09 34.1765C196.714 34.5045 196.25 34.7645 195.698 34.9565C195.146 35.1405 194.51 35.2325 193.79 35.2325H189.122V23.0765H191.174V27.8405H193.754Z" fill="#373737"/>
<rect x="1" y="1.23254" width="278" height="50" rx="25" stroke="#373737" stroke-width="2"/>
</svg>
