<svg width="31" height="35" viewBox="0 0 31 35" fill="none" xmlns="http://www.w3.org/2000/svg">
<path fill-rule="evenodd" clip-rule="evenodd" d="M3.87572 0.0796262C2.19639 0.358971 0.763127 1.6145 0.199955 3.29963L0.0303335 3.80726L0.0100954 17.1508C-0.012545 32.1216 -0.0467607 31.1119 0.522963 32.2711C1.11387 33.4735 2.34592 34.4245 3.67028 34.7006C4.4343 34.8598 25.8379 34.8598 26.6019 34.7006C27.9238 34.425 29.1646 33.4691 29.7586 32.2686C30.3056 31.1633 30.2756 31.8772 30.277 19.9626L30.2783 9.28581L25.9884 9.26601C21.7851 9.24665 21.6945 9.24317 21.4976 9.09668C21.387 9.01444 21.2291 8.85707 21.1465 8.74699C20.9995 8.55075 20.996 8.46054 20.9765 4.27334L20.9567 0L12.6047 0.0084848C8.01105 0.013126 4.08305 0.0451795 3.87572 0.0796262ZM23.2896 3.51719V6.96185H26.7654H30.2413L26.7839 3.51719C24.8823 1.62262 23.3183 0.0725193 23.3081 0.0725193C23.2979 0.0725193 23.2896 1.62262 23.2896 3.51719ZM15.829 9.53237C16.3012 9.89112 16.3009 9.88859 16.3009 13.2247V16.2385L19.4188 16.2596L22.5367 16.2806L22.7937 16.476C23.4609 16.983 23.4415 17.8661 22.752 18.3791C22.5574 18.524 22.4522 18.5293 19.4282 18.5491L16.3054 18.5694L16.2849 21.6803C16.2651 24.6926 16.2597 24.7975 16.1144 24.9913C15.8291 25.3718 15.5965 25.4905 15.1361 25.4905C14.6757 25.4905 14.4431 25.3718 14.1578 24.9913C14.0124 24.7975 14.0071 24.6926 13.9873 21.6803L13.9668 18.5694L10.8439 18.5491C7.82003 18.5293 7.71476 18.524 7.52017 18.3791C7.19047 18.1338 7.03686 17.8715 7.00585 17.5006C6.96603 17.0253 7.19396 16.6294 7.63534 16.4075C7.95624 16.2461 7.99322 16.2443 10.9656 16.2443H13.9713L13.9725 13.2166C13.9737 10.2176 13.9752 10.1862 14.1366 9.89888C14.4723 9.30111 15.2912 9.1238 15.829 9.53237Z" fill="#373737"/>
</svg>
