<svg width="280" height="53" viewBox="0 0 280 53" fill="none" xmlns="http://www.w3.org/2000/svg">
<rect y="0.232544" width="280" height="52" rx="26" fill="#373737"/>
<path d="M104.128 18.0365V35.2325H101.8V27.4085H92.524V35.2325H90.196V18.0365H92.524V25.7045H101.8V18.0365H104.128ZM114.257 29.7605C113.273 29.7925 112.433 29.8725 111.737 30.0005C111.049 30.1205 110.485 30.2805 110.045 30.4805C109.613 30.6805 109.297 30.9165 109.097 31.1885C108.905 31.4605 108.809 31.7645 108.809 32.1005C108.809 32.4205 108.861 32.6965 108.965 32.9285C109.069 33.1605 109.209 33.3525 109.385 33.5045C109.569 33.6485 109.781 33.7565 110.021 33.8285C110.269 33.8925 110.533 33.9245 110.813 33.9245C111.189 33.9245 111.533 33.8885 111.845 33.8165C112.157 33.7365 112.449 33.6245 112.721 33.4805C113.001 33.3365 113.265 33.1645 113.513 32.9645C113.769 32.7645 114.017 32.5365 114.257 32.2805V29.7605ZM107.357 24.7925C108.029 24.1445 108.753 23.6605 109.529 23.3405C110.305 23.0205 111.165 22.8605 112.109 22.8605C112.789 22.8605 113.393 22.9725 113.921 23.1965C114.449 23.4205 114.893 23.7325 115.253 24.1325C115.613 24.5325 115.885 25.0165 116.069 25.5845C116.253 26.1525 116.345 26.7765 116.345 27.4565V35.2325H115.397C115.189 35.2325 115.029 35.2005 114.917 35.1365C114.805 35.0645 114.717 34.9285 114.653 34.7285L114.413 33.5765C114.093 33.8725 113.781 34.1365 113.477 34.3685C113.173 34.5925 112.853 34.7845 112.517 34.9445C112.181 35.0965 111.821 35.2125 111.437 35.2925C111.061 35.3805 110.641 35.4245 110.177 35.4245C109.705 35.4245 109.261 35.3605 108.845 35.2325C108.429 35.0965 108.065 34.8965 107.753 34.6325C107.449 34.3685 107.205 34.0365 107.021 33.6365C106.845 33.2285 106.757 32.7485 106.757 32.1965C106.757 31.7165 106.889 31.2565 107.153 30.8165C107.417 30.3685 107.845 29.9725 108.437 29.6285C109.029 29.2845 109.801 29.0045 110.753 28.7885C111.705 28.5645 112.873 28.4365 114.257 28.4045V27.4565C114.257 26.5125 114.053 25.8005 113.645 25.3205C113.237 24.8325 112.641 24.5885 111.857 24.5885C111.329 24.5885 110.885 24.6565 110.525 24.7925C110.173 24.9205 109.865 25.0685 109.601 25.2365C109.345 25.3965 109.121 25.5445 108.929 25.6805C108.745 25.8085 108.561 25.8725 108.377 25.8725C108.233 25.8725 108.109 25.8365 108.005 25.7645C107.901 25.6845 107.813 25.5885 107.741 25.4765L107.357 24.7925ZM129.726 35.2325H127.578V24.7085H121.746V35.2325H119.598V23.0765H129.726V35.2325ZM143.55 23.0765V35.2325H141.414V26.9765C141.414 26.8165 141.422 26.6445 141.438 26.4605C141.454 26.2765 141.474 26.0925 141.498 25.9085C141.426 26.0685 141.354 26.2165 141.282 26.3525C141.21 26.4885 141.134 26.6125 141.054 26.7245L135.186 34.7045C135.098 34.8325 134.986 34.9565 134.85 35.0765C134.722 35.1885 134.578 35.2445 134.418 35.2445H133.122V23.0885H135.27V31.3445C135.27 31.4965 135.262 31.6645 135.246 31.8485C135.23 32.0245 135.21 32.2045 135.186 32.3885C135.258 32.2365 135.33 32.0965 135.402 31.9685C135.474 31.8325 135.546 31.7085 135.618 31.5965L141.486 23.6165C141.574 23.4885 141.686 23.3685 141.822 23.2565C141.958 23.1365 142.106 23.0765 142.266 23.0765H143.55ZM155.386 25.2365C155.322 25.3245 155.258 25.3925 155.194 25.4405C155.13 25.4885 155.042 25.5125 154.93 25.5125C154.81 25.5125 154.678 25.4645 154.534 25.3685C154.39 25.2645 154.21 25.1525 153.994 25.0325C153.786 24.9125 153.526 24.8045 153.214 24.7085C152.91 24.6045 152.534 24.5525 152.086 24.5525C151.486 24.5525 150.958 24.6605 150.502 24.8765C150.046 25.0845 149.662 25.3885 149.35 25.7885C149.046 26.1885 148.814 26.6725 148.654 27.2405C148.502 27.8085 148.426 28.4445 148.426 29.1485C148.426 29.8845 148.51 30.5405 148.678 31.1165C148.846 31.6845 149.082 32.1645 149.386 32.5565C149.698 32.9405 150.07 33.2365 150.502 33.4445C150.942 33.6445 151.434 33.7445 151.978 33.7445C152.498 33.7445 152.926 33.6845 153.262 33.5645C153.598 33.4365 153.874 33.2965 154.09 33.1445C154.314 32.9925 154.498 32.8565 154.642 32.7365C154.794 32.6085 154.942 32.5445 155.086 32.5445C155.262 32.5445 155.398 32.6125 155.494 32.7485L156.094 33.5285C155.83 33.8565 155.53 34.1365 155.194 34.3685C154.858 34.6005 154.494 34.7965 154.102 34.9565C153.718 35.1085 153.314 35.2205 152.89 35.2925C152.466 35.3645 152.034 35.4005 151.594 35.4005C150.834 35.4005 150.126 35.2605 149.47 34.9805C148.822 34.7005 148.258 34.2965 147.778 33.7685C147.298 33.2325 146.922 32.5765 146.65 31.8005C146.378 31.0245 146.242 30.1405 146.242 29.1485C146.242 28.2445 146.366 27.4085 146.614 26.6405C146.87 25.8725 147.238 25.2125 147.718 24.6605C148.206 24.1005 148.802 23.6645 149.506 23.3525C150.218 23.0405 151.034 22.8845 151.954 22.8845C152.81 22.8845 153.562 23.0245 154.21 23.3045C154.866 23.5765 155.446 23.9645 155.95 24.4685L155.386 25.2365ZM164.975 29.7605C163.991 29.7925 163.151 29.8725 162.455 30.0005C161.767 30.1205 161.203 30.2805 160.763 30.4805C160.331 30.6805 160.015 30.9165 159.815 31.1885C159.623 31.4605 159.527 31.7645 159.527 32.1005C159.527 32.4205 159.579 32.6965 159.683 32.9285C159.787 33.1605 159.927 33.3525 160.103 33.5045C160.287 33.6485 160.499 33.7565 160.739 33.8285C160.987 33.8925 161.251 33.9245 161.531 33.9245C161.907 33.9245 162.251 33.8885 162.563 33.8165C162.875 33.7365 163.167 33.6245 163.439 33.4805C163.719 33.3365 163.983 33.1645 164.231 32.9645C164.487 32.7645 164.735 32.5365 164.975 32.2805V29.7605ZM158.075 24.7925C158.747 24.1445 159.471 23.6605 160.247 23.3405C161.023 23.0205 161.883 22.8605 162.827 22.8605C163.507 22.8605 164.111 22.9725 164.639 23.1965C165.167 23.4205 165.611 23.7325 165.971 24.1325C166.331 24.5325 166.603 25.0165 166.787 25.5845C166.971 26.1525 167.063 26.7765 167.063 27.4565V35.2325H166.115C165.907 35.2325 165.747 35.2005 165.635 35.1365C165.523 35.0645 165.435 34.9285 165.371 34.7285L165.131 33.5765C164.811 33.8725 164.499 34.1365 164.195 34.3685C163.891 34.5925 163.571 34.7845 163.235 34.9445C162.899 35.0965 162.539 35.2125 162.155 35.2925C161.779 35.3805 161.359 35.4245 160.895 35.4245C160.423 35.4245 159.979 35.3605 159.563 35.2325C159.147 35.0965 158.783 34.8965 158.471 34.6325C158.167 34.3685 157.923 34.0365 157.739 33.6365C157.563 33.2285 157.475 32.7485 157.475 32.1965C157.475 31.7165 157.607 31.2565 157.871 30.8165C158.135 30.3685 158.563 29.9725 159.155 29.6285C159.747 29.2845 160.519 29.0045 161.471 28.7885C162.423 28.5645 163.591 28.4365 164.975 28.4045V27.4565C164.975 26.5125 164.771 25.8005 164.363 25.3205C163.955 24.8325 163.359 24.5885 162.575 24.5885C162.047 24.5885 161.603 24.6565 161.243 24.7925C160.891 24.9205 160.583 25.0685 160.319 25.2365C160.063 25.3965 159.839 25.5445 159.647 25.6805C159.463 25.8085 159.279 25.8725 159.095 25.8725C158.951 25.8725 158.827 25.8365 158.723 25.7645C158.619 25.6845 158.531 25.5885 158.459 25.4765L158.075 24.7925ZM180.116 24.7085H175.448V35.2325H173.312V24.7085H168.644V23.0765H180.116V24.7085ZM186.821 33.6725C187.253 33.6725 187.625 33.6205 187.937 33.5165C188.257 33.4045 188.521 33.2525 188.729 33.0605C188.937 32.8605 189.093 32.6285 189.197 32.3645C189.301 32.1005 189.353 31.8125 189.353 31.5005C189.353 31.2125 189.309 30.9445 189.221 30.6965C189.133 30.4405 188.985 30.2165 188.777 30.0245C188.577 29.8325 188.313 29.6805 187.985 29.5685C187.657 29.4565 187.257 29.4005 186.785 29.4005H184.205V33.6725H186.821ZM186.785 27.8405C187.625 27.8405 188.329 27.9405 188.897 28.1405C189.473 28.3405 189.933 28.6085 190.277 28.9445C190.629 29.2805 190.881 29.6685 191.033 30.1085C191.185 30.5485 191.261 31.0045 191.261 31.4765C191.261 32.0205 191.165 32.5245 190.973 32.9885C190.781 33.4445 190.497 33.8405 190.121 34.1765C189.745 34.5045 189.281 34.7645 188.729 34.9565C188.177 35.1405 187.541 35.2325 186.821 35.2325H182.153V23.0765H184.205V27.8405H186.785Z" fill="white"/>
</svg>
