<svg width="424" height="52" viewBox="0 0 424 52" fill="none" xmlns="http://www.w3.org/2000/svg">
<path d="M136.272 26.72C136.936 26.72 137.52 26.632 138.024 26.456C138.536 26.28 138.964 26.036 139.308 25.724C139.66 25.404 139.924 25.024 140.1 24.584C140.276 24.144 140.364 23.66 140.364 23.132C140.364 22.036 140.024 21.18 139.344 20.564C138.672 19.948 137.648 19.64 136.272 19.64H133.512V26.72H136.272ZM136.272 17.804C137.36 17.804 138.304 17.932 139.104 18.188C139.912 18.436 140.58 18.792 141.108 19.256C141.636 19.72 142.028 20.28 142.284 20.936C142.548 21.592 142.68 22.324 142.68 23.132C142.68 23.932 142.54 24.664 142.26 25.328C141.98 25.992 141.568 26.564 141.024 27.044C140.488 27.524 139.82 27.9 139.02 28.172C138.228 28.436 137.312 28.568 136.272 28.568H133.512V35H131.196V17.804H136.272ZM152.609 27.596C152.609 27.1 152.537 26.648 152.393 26.24C152.257 25.824 152.053 25.468 151.781 25.172C151.517 24.868 151.193 24.636 150.809 24.476C150.425 24.308 149.989 24.224 149.501 24.224C148.477 24.224 147.665 24.524 147.065 25.124C146.473 25.716 146.105 26.54 145.961 27.596H152.609ZM154.337 33.296C154.073 33.616 153.757 33.896 153.389 34.136C153.021 34.368 152.625 34.56 152.201 34.712C151.785 34.864 151.353 34.976 150.905 35.048C150.457 35.128 150.013 35.168 149.573 35.168C148.733 35.168 147.957 35.028 147.245 34.748C146.541 34.46 145.929 34.044 145.409 33.5C144.897 32.948 144.497 32.268 144.209 31.46C143.921 30.652 143.777 29.724 143.777 28.676C143.777 27.828 143.905 27.036 144.161 26.3C144.425 25.564 144.801 24.928 145.289 24.392C145.777 23.848 146.373 23.424 147.077 23.12C147.781 22.808 148.573 22.652 149.453 22.652C150.181 22.652 150.853 22.776 151.469 23.024C152.093 23.264 152.629 23.616 153.077 24.08C153.533 24.536 153.889 25.104 154.145 25.784C154.401 26.456 154.529 27.224 154.529 28.088C154.529 28.424 154.493 28.648 154.421 28.76C154.349 28.872 154.213 28.928 154.013 28.928H145.889C145.913 29.696 146.017 30.364 146.201 30.932C146.393 31.5 146.657 31.976 146.993 32.36C147.329 32.736 147.729 33.02 148.193 33.212C148.657 33.396 149.177 33.488 149.753 33.488C150.289 33.488 150.749 33.428 151.133 33.308C151.525 33.18 151.861 33.044 152.141 32.9C152.421 32.756 152.653 32.624 152.837 32.504C153.029 32.376 153.193 32.312 153.329 32.312C153.505 32.312 153.641 32.38 153.737 32.516L154.337 33.296ZM165.435 33.44V24.524H161.583C161.503 25.772 161.391 26.876 161.247 27.836C161.103 28.796 160.935 29.64 160.743 30.368C160.559 31.088 160.351 31.7 160.119 32.204C159.895 32.708 159.659 33.12 159.411 33.44H165.435ZM169.731 33.38V38.528C169.731 38.736 169.671 38.896 169.551 39.008C169.439 39.128 169.291 39.188 169.107 39.188H167.799V35H157.575V38.576C157.575 38.728 157.527 38.868 157.431 38.996C157.343 39.124 157.195 39.188 156.987 39.188H155.643V33.44H156.039C156.319 33.44 156.595 33.392 156.867 33.296C157.147 33.2 157.415 33.02 157.671 32.756C157.927 32.484 158.167 32.104 158.391 31.616C158.623 31.128 158.831 30.492 159.015 29.708C159.199 28.924 159.359 27.972 159.495 26.852C159.631 25.724 159.739 24.388 159.819 22.844H167.511V33.38H169.731ZM178.483 29.528C177.499 29.56 176.659 29.64 175.963 29.768C175.275 29.888 174.711 30.048 174.271 30.248C173.839 30.448 173.523 30.684 173.323 30.956C173.131 31.228 173.035 31.532 173.035 31.868C173.035 32.188 173.087 32.464 173.191 32.696C173.295 32.928 173.435 33.12 173.611 33.272C173.795 33.416 174.007 33.524 174.247 33.596C174.495 33.66 174.759 33.692 175.039 33.692C175.415 33.692 175.759 33.656 176.071 33.584C176.383 33.504 176.675 33.392 176.947 33.248C177.227 33.104 177.491 32.932 177.739 32.732C177.995 32.532 178.243 32.304 178.483 32.048V29.528ZM171.583 24.56C172.255 23.912 172.979 23.428 173.755 23.108C174.531 22.788 175.391 22.628 176.335 22.628C177.015 22.628 177.619 22.74 178.147 22.964C178.675 23.188 179.119 23.5 179.479 23.9C179.839 24.3 180.111 24.784 180.295 25.352C180.479 25.92 180.571 26.544 180.571 27.224V35H179.623C179.415 35 179.255 34.968 179.143 34.904C179.031 34.832 178.943 34.696 178.879 34.496L178.639 33.344C178.319 33.64 178.007 33.904 177.703 34.136C177.399 34.36 177.079 34.552 176.743 34.712C176.407 34.864 176.047 34.98 175.663 35.06C175.287 35.148 174.867 35.192 174.403 35.192C173.931 35.192 173.487 35.128 173.071 35C172.655 34.864 172.291 34.664 171.979 34.4C171.675 34.136 171.431 33.804 171.247 33.404C171.071 32.996 170.983 32.516 170.983 31.964C170.983 31.484 171.115 31.024 171.379 30.584C171.643 30.136 172.071 29.74 172.663 29.396C173.255 29.052 174.027 28.772 174.979 28.556C175.931 28.332 177.099 28.204 178.483 28.172V27.224C178.483 26.28 178.279 25.568 177.871 25.088C177.463 24.6 176.867 24.356 176.083 24.356C175.555 24.356 175.111 24.424 174.751 24.56C174.399 24.688 174.091 24.836 173.827 25.004C173.571 25.164 173.347 25.312 173.155 25.448C172.971 25.576 172.787 25.64 172.603 25.64C172.459 25.64 172.335 25.604 172.231 25.532C172.127 25.452 172.039 25.356 171.967 25.244L171.583 24.56ZM191.205 23.444C191.317 23.268 191.465 23.124 191.649 23.012C191.833 22.9 192.029 22.844 192.237 22.844H193.905L190.749 27.476C190.557 27.772 190.357 28.016 190.149 28.208C189.941 28.392 189.685 28.536 189.381 28.64C189.765 28.744 190.089 28.908 190.353 29.132C190.617 29.348 190.853 29.628 191.061 29.972L194.253 35H192.765C192.381 35 192.085 34.936 191.877 34.808C191.669 34.68 191.489 34.496 191.337 34.256L188.973 30.476C188.597 29.852 188.033 29.54 187.281 29.54H185.973V35.012H183.825V22.844H185.973V28.1H187.125C187.765 28.1 188.265 27.828 188.625 27.284L191.205 23.444ZM206.351 24.476H201.683V35H199.547V24.476H194.879V22.844H206.351V24.476ZM218.815 22.844V35H216.679V26.744C216.679 26.584 216.687 26.412 216.703 26.228C216.719 26.044 216.739 25.86 216.763 25.676C216.691 25.836 216.619 25.984 216.547 26.12C216.475 26.256 216.399 26.38 216.319 26.492L210.451 34.472C210.363 34.6 210.251 34.724 210.115 34.844C209.987 34.956 209.843 35.012 209.683 35.012H208.387V22.856H210.535V31.112C210.535 31.264 210.527 31.432 210.511 31.616C210.495 31.792 210.475 31.972 210.451 32.156C210.523 32.004 210.595 31.864 210.667 31.736C210.739 31.6 210.811 31.476 210.883 31.364L216.751 23.384C216.839 23.256 216.951 23.136 217.087 23.024C217.223 22.904 217.371 22.844 217.531 22.844H218.815ZM224.34 32.072C224.732 32.6 225.16 32.972 225.624 33.188C226.088 33.404 226.608 33.512 227.184 33.512C228.32 33.512 229.192 33.108 229.8 32.3C230.408 31.492 230.712 30.34 230.712 28.844C230.712 28.052 230.64 27.372 230.496 26.804C230.36 26.236 230.16 25.772 229.896 25.412C229.632 25.044 229.308 24.776 228.924 24.608C228.54 24.44 228.104 24.356 227.616 24.356C226.92 24.356 226.308 24.516 225.78 24.836C225.26 25.156 224.78 25.608 224.34 26.192V32.072ZM224.232 24.728C224.744 24.096 225.336 23.588 226.008 23.204C226.68 22.82 227.448 22.628 228.312 22.628C229.016 22.628 229.652 22.764 230.22 23.036C230.788 23.3 231.272 23.696 231.672 24.224C232.072 24.744 232.38 25.392 232.596 26.168C232.812 26.944 232.92 27.836 232.92 28.844C232.92 29.74 232.8 30.576 232.56 31.352C232.32 32.12 231.972 32.788 231.516 33.356C231.068 33.916 230.516 34.36 229.86 34.688C229.212 35.008 228.48 35.168 227.664 35.168C226.92 35.168 226.28 35.044 225.744 34.796C225.216 34.54 224.748 34.188 224.34 33.74V39.116H222.192V22.844H223.476C223.78 22.844 223.968 22.992 224.04 23.288L224.232 24.728ZM240.746 22.652C241.634 22.652 242.434 22.8 243.146 23.096C243.858 23.392 244.466 23.812 244.97 24.356C245.474 24.9 245.858 25.56 246.122 26.336C246.394 27.104 246.53 27.964 246.53 28.916C246.53 29.876 246.394 30.74 246.122 31.508C245.858 32.276 245.474 32.932 244.97 33.476C244.466 34.02 243.858 34.44 243.146 34.736C242.434 35.024 241.634 35.168 240.746 35.168C239.85 35.168 239.042 35.024 238.322 34.736C237.61 34.44 237.002 34.02 236.498 33.476C235.994 32.932 235.606 32.276 235.334 31.508C235.07 30.74 234.938 29.876 234.938 28.916C234.938 27.964 235.07 27.104 235.334 26.336C235.606 25.56 235.994 24.9 236.498 24.356C237.002 23.812 237.61 23.392 238.322 23.096C239.042 22.8 239.85 22.652 240.746 22.652ZM240.746 33.5C241.946 33.5 242.842 33.1 243.434 32.3C244.026 31.492 244.322 30.368 244.322 28.928C244.322 27.48 244.026 26.352 243.434 25.544C242.842 24.736 241.946 24.332 240.746 24.332C240.138 24.332 239.606 24.436 239.15 24.644C238.702 24.852 238.326 25.152 238.022 25.544C237.726 25.936 237.502 26.42 237.35 26.996C237.206 27.564 237.134 28.208 237.134 28.928C237.134 30.368 237.43 31.492 238.022 32.3C238.622 33.1 239.53 33.5 240.746 33.5ZM253.907 33.5C254.707 33.5 255.339 33.316 255.803 32.948C256.267 32.572 256.499 32.06 256.499 31.412C256.499 31.124 256.455 30.864 256.367 30.632C256.279 30.392 256.135 30.184 255.935 30.008C255.735 29.832 255.467 29.696 255.131 29.6C254.803 29.504 254.399 29.456 253.919 29.456H251.291V33.5H253.907ZM251.291 24.284V28.1H253.631C253.983 28.1 254.307 28.052 254.603 27.956C254.907 27.852 255.167 27.712 255.383 27.536C255.599 27.352 255.767 27.136 255.887 26.888C256.007 26.632 256.067 26.352 256.067 26.048C256.067 25.824 256.027 25.608 255.947 25.4C255.867 25.184 255.731 24.996 255.539 24.836C255.347 24.668 255.095 24.536 254.783 24.44C254.471 24.336 254.087 24.284 253.631 24.284H251.291ZM253.691 22.844C254.443 22.844 255.087 22.92 255.623 23.072C256.159 23.224 256.599 23.432 256.943 23.696C257.287 23.952 257.539 24.256 257.699 24.608C257.859 24.96 257.939 25.336 257.939 25.736C257.939 26 257.903 26.276 257.831 26.564C257.759 26.852 257.631 27.128 257.447 27.392C257.271 27.656 257.027 27.896 256.715 28.112C256.411 28.32 256.027 28.484 255.563 28.604C256.491 28.764 257.207 29.088 257.711 29.576C258.215 30.056 258.467 30.692 258.467 31.484C258.467 32.076 258.347 32.592 258.107 33.032C257.875 33.464 257.551 33.828 257.135 34.124C256.727 34.42 256.247 34.64 255.695 34.784C255.143 34.928 254.551 35 253.919 35H249.239V22.844H253.691ZM267.733 29.528C266.749 29.56 265.909 29.64 265.213 29.768C264.525 29.888 263.961 30.048 263.521 30.248C263.089 30.448 262.773 30.684 262.573 30.956C262.381 31.228 262.285 31.532 262.285 31.868C262.285 32.188 262.337 32.464 262.441 32.696C262.545 32.928 262.685 33.12 262.861 33.272C263.045 33.416 263.257 33.524 263.497 33.596C263.745 33.66 264.009 33.692 264.289 33.692C264.665 33.692 265.009 33.656 265.321 33.584C265.633 33.504 265.925 33.392 266.197 33.248C266.477 33.104 266.741 32.932 266.989 32.732C267.245 32.532 267.493 32.304 267.733 32.048V29.528ZM260.833 24.56C261.505 23.912 262.229 23.428 263.005 23.108C263.781 22.788 264.641 22.628 265.585 22.628C266.265 22.628 266.869 22.74 267.397 22.964C267.925 23.188 268.369 23.5 268.729 23.9C269.089 24.3 269.361 24.784 269.545 25.352C269.729 25.92 269.821 26.544 269.821 27.224V35H268.873C268.665 35 268.505 34.968 268.393 34.904C268.281 34.832 268.193 34.696 268.129 34.496L267.889 33.344C267.569 33.64 267.257 33.904 266.953 34.136C266.649 34.36 266.329 34.552 265.993 34.712C265.657 34.864 265.297 34.98 264.913 35.06C264.537 35.148 264.117 35.192 263.653 35.192C263.181 35.192 262.737 35.128 262.321 35C261.905 34.864 261.541 34.664 261.229 34.4C260.925 34.136 260.681 33.804 260.497 33.404C260.321 32.996 260.233 32.516 260.233 31.964C260.233 31.484 260.365 31.024 260.629 30.584C260.893 30.136 261.321 29.74 261.913 29.396C262.505 29.052 263.277 28.772 264.229 28.556C265.181 28.332 266.349 28.204 267.733 28.172V27.224C267.733 26.28 267.529 25.568 267.121 25.088C266.713 24.6 266.117 24.356 265.333 24.356C264.805 24.356 264.361 24.424 264.001 24.56C263.649 24.688 263.341 24.836 263.077 25.004C262.821 25.164 262.597 25.312 262.405 25.448C262.221 25.576 262.037 25.64 261.853 25.64C261.709 25.64 261.585 25.604 261.481 25.532C261.377 25.452 261.289 25.356 261.217 25.244L260.833 24.56ZM282.874 24.476H278.206V35H276.07V24.476H271.402V22.844H282.874V24.476ZM289.579 33.44C290.011 33.44 290.383 33.388 290.695 33.284C291.015 33.172 291.279 33.02 291.487 32.828C291.695 32.628 291.851 32.396 291.955 32.132C292.059 31.868 292.111 31.58 292.111 31.268C292.111 30.98 292.067 30.712 291.979 30.464C291.891 30.208 291.743 29.984 291.535 29.792C291.335 29.6 291.071 29.448 290.743 29.336C290.415 29.224 290.015 29.168 289.543 29.168H286.963V33.44H289.579ZM289.543 27.608C290.383 27.608 291.087 27.708 291.655 27.908C292.231 28.108 292.691 28.376 293.035 28.712C293.387 29.048 293.639 29.436 293.791 29.876C293.943 30.316 294.019 30.772 294.019 31.244C294.019 31.788 293.923 32.292 293.731 32.756C293.539 33.212 293.255 33.608 292.879 33.944C292.503 34.272 292.039 34.532 291.487 34.724C290.935 34.908 290.299 35 289.579 35H284.911V22.844H286.963V27.608H289.543Z" fill="#373737"/>
<rect x="1" y="1" width="422" height="50" rx="25" stroke="#373737" stroke-width="2"/>
</svg>
