<svg width="341" height="319" viewBox="0 0 341 319" fill="none" xmlns="http://www.w3.org/2000/svg">
<path fill-rule="evenodd" clip-rule="evenodd" d="M289.587 91.9381C306.229 124.365 312.674 162.397 297.555 195.56C281.166 231.51 248.016 255.658 210.017 266.478C165.679 279.102 114.803 286.686 78.8499 257.832C41.5738 227.917 26.3305 174.471 37.4481 127.986C47.0068 88.0201 91.3759 72.4285 127.761 53.3287C155.467 38.7847 184.597 27.5023 215.034 34.7641C247.083 42.4106 274.543 62.6241 289.587 91.9381Z" fill="white" fill-opacity="0.2"/>
<path fill-rule="evenodd" clip-rule="evenodd" d="M181.198 49.906C215.273 50.4066 250.164 57.4376 271.965 80.6049C294.261 104.298 300.143 137.034 291.231 166.835C282.68 195.433 256.664 215.159 227.431 229.532C195.166 245.397 158.489 261.481 124.454 248.836C88.9991 235.663 70.473 201.845 63.0765 168.468C55.9883 136.483 62.2054 102.336 86.5692 77.8813C109.702 54.6621 146.212 49.3921 181.198 49.906Z" fill="white" fill-opacity="0.2"/>
</svg>
