<svg width="424" height="52" viewBox="0 0 424 52" fill="none" xmlns="http://www.w3.org/2000/svg">
<rect width="424" height="52" rx="26" fill="#373737"/>
<path d="M90.2 19.412C90.848 18.836 91.6 18.396 92.456 18.092C93.312 17.788 94.284 17.636 95.372 17.636C96.26 17.636 97.056 17.744 97.76 17.96C98.472 18.176 99.076 18.48 99.572 18.872C100.068 19.264 100.448 19.728 100.712 20.264C100.984 20.8 101.12 21.388 101.12 22.028C101.12 22.892 100.904 23.652 100.472 24.308C100.048 24.964 99.448 25.472 98.672 25.832C99.112 26.016 99.512 26.244 99.872 26.516C100.232 26.78 100.54 27.08 100.796 27.416C101.06 27.752 101.26 28.12 101.396 28.52C101.54 28.92 101.612 29.34 101.612 29.78C101.612 30.532 101.472 31.236 101.192 31.892C100.912 32.548 100.504 33.12 99.968 33.608C99.44 34.088 98.788 34.468 98.012 34.748C97.236 35.028 96.352 35.168 95.36 35.168C94.128 35.168 93.02 34.968 92.036 34.568C91.052 34.16 90.208 33.612 89.504 32.924L90.176 31.82C90.24 31.732 90.32 31.66 90.416 31.604C90.512 31.54 90.616 31.508 90.728 31.508C90.896 31.508 91.096 31.6 91.328 31.784C91.56 31.96 91.856 32.156 92.216 32.372C92.576 32.588 93.012 32.788 93.524 32.972C94.044 33.148 94.676 33.236 95.42 33.236C96.052 33.236 96.616 33.16 97.112 33.008C97.616 32.856 98.036 32.636 98.372 32.348C98.716 32.06 98.976 31.708 99.152 31.292C99.336 30.876 99.428 30.408 99.428 29.888C99.428 29.44 99.34 29.028 99.164 28.652C98.996 28.276 98.748 27.956 98.42 27.692C98.092 27.42 97.692 27.212 97.22 27.068C96.748 26.916 96.216 26.84 95.624 26.84H93.272V24.932H95.528C96.016 24.932 96.468 24.872 96.884 24.752C97.308 24.632 97.668 24.456 97.964 24.224C98.268 23.992 98.504 23.708 98.672 23.372C98.848 23.036 98.936 22.652 98.936 22.22C98.936 21.828 98.856 21.468 98.696 21.14C98.536 20.812 98.304 20.532 98 20.3C97.696 20.06 97.324 19.876 96.884 19.748C96.444 19.62 95.944 19.556 95.384 19.556C94.736 19.556 94.184 19.624 93.728 19.76C93.272 19.896 92.888 20.048 92.576 20.216C92.264 20.376 92.008 20.524 91.808 20.66C91.616 20.796 91.448 20.864 91.304 20.864C91.176 20.864 91.072 20.836 90.992 20.78C90.912 20.724 90.836 20.632 90.764 20.504L90.2 19.412ZM110.897 29.528C109.913 29.56 109.073 29.64 108.377 29.768C107.689 29.888 107.125 30.048 106.685 30.248C106.253 30.448 105.937 30.684 105.737 30.956C105.545 31.228 105.449 31.532 105.449 31.868C105.449 32.188 105.501 32.464 105.605 32.696C105.709 32.928 105.849 33.12 106.025 33.272C106.209 33.416 106.421 33.524 106.661 33.596C106.909 33.66 107.173 33.692 107.453 33.692C107.829 33.692 108.173 33.656 108.485 33.584C108.797 33.504 109.089 33.392 109.361 33.248C109.641 33.104 109.905 32.932 110.153 32.732C110.409 32.532 110.657 32.304 110.897 32.048V29.528ZM103.997 24.56C104.669 23.912 105.393 23.428 106.169 23.108C106.945 22.788 107.805 22.628 108.749 22.628C109.429 22.628 110.033 22.74 110.561 22.964C111.089 23.188 111.533 23.5 111.893 23.9C112.253 24.3 112.525 24.784 112.709 25.352C112.893 25.92 112.985 26.544 112.985 27.224V35H112.037C111.829 35 111.669 34.968 111.557 34.904C111.445 34.832 111.357 34.696 111.293 34.496L111.053 33.344C110.733 33.64 110.421 33.904 110.117 34.136C109.813 34.36 109.493 34.552 109.157 34.712C108.821 34.864 108.461 34.98 108.077 35.06C107.701 35.148 107.281 35.192 106.817 35.192C106.345 35.192 105.901 35.128 105.485 35C105.069 34.864 104.705 34.664 104.393 34.4C104.089 34.136 103.845 33.804 103.661 33.404C103.485 32.996 103.397 32.516 103.397 31.964C103.397 31.484 103.529 31.024 103.793 30.584C104.057 30.136 104.485 29.74 105.077 29.396C105.669 29.052 106.441 28.772 107.393 28.556C108.345 28.332 109.513 28.204 110.897 28.172V27.224C110.897 26.28 110.693 25.568 110.285 25.088C109.877 24.6 109.281 24.356 108.497 24.356C107.969 24.356 107.525 24.424 107.165 24.56C106.813 24.688 106.505 24.836 106.241 25.004C105.985 25.164 105.761 25.312 105.569 25.448C105.385 25.576 105.201 25.64 105.017 25.64C104.873 25.64 104.749 25.604 104.645 25.532C104.541 25.452 104.453 25.356 104.381 25.244L103.997 24.56ZM124.123 24.476H118.387V35H116.239V22.844H124.123V24.476ZM128.301 32.072C128.693 32.6 129.121 32.972 129.585 33.188C130.049 33.404 130.569 33.512 131.145 33.512C132.281 33.512 133.153 33.108 133.761 32.3C134.369 31.492 134.673 30.34 134.673 28.844C134.673 28.052 134.601 27.372 134.457 26.804C134.321 26.236 134.121 25.772 133.857 25.412C133.593 25.044 133.269 24.776 132.885 24.608C132.501 24.44 132.065 24.356 131.577 24.356C130.881 24.356 130.269 24.516 129.741 24.836C129.221 25.156 128.741 25.608 128.301 26.192V32.072ZM128.193 24.728C128.705 24.096 129.297 23.588 129.969 23.204C130.641 22.82 131.409 22.628 132.273 22.628C132.977 22.628 133.613 22.764 134.181 23.036C134.749 23.3 135.233 23.696 135.633 24.224C136.033 24.744 136.341 25.392 136.557 26.168C136.773 26.944 136.881 27.836 136.881 28.844C136.881 29.74 136.761 30.576 136.521 31.352C136.281 32.12 135.933 32.788 135.477 33.356C135.029 33.916 134.477 34.36 133.821 34.688C133.173 35.008 132.441 35.168 131.625 35.168C130.881 35.168 130.241 35.044 129.705 34.796C129.177 34.54 128.709 34.188 128.301 33.74V39.116H126.153V22.844H127.437C127.741 22.844 127.929 22.992 128.001 23.288L128.193 24.728ZM149.743 22.844L142.963 38.588C142.891 38.748 142.799 38.876 142.687 38.972C142.583 39.068 142.419 39.116 142.195 39.116H140.611L142.831 34.292L137.815 22.844H139.663C139.847 22.844 139.991 22.892 140.095 22.988C140.207 23.076 140.283 23.176 140.323 23.288L143.575 30.944C143.703 31.28 143.811 31.632 143.898 32C144.011 31.624 144.131 31.268 144.259 30.932L147.415 23.288C147.463 23.16 147.543 23.056 147.655 22.976C147.775 22.888 147.907 22.844 148.051 22.844H149.743ZM150.768 24.092C151.224 23.66 151.776 23.312 152.424 23.048C153.08 22.784 153.868 22.652 154.788 22.652C155.524 22.652 156.172 22.744 156.732 22.928C157.292 23.104 157.76 23.34 158.136 23.636C158.52 23.932 158.808 24.272 159 24.656C159.2 25.032 159.3 25.424 159.3 25.832C159.3 26.072 159.26 26.324 159.18 26.588C159.108 26.852 158.984 27.104 158.808 27.344C158.632 27.584 158.404 27.808 158.124 28.016C157.844 28.224 157.496 28.392 157.08 28.52C157.856 28.752 158.464 29.124 158.904 29.636C159.352 30.148 159.576 30.776 159.576 31.52C159.576 32.08 159.448 32.588 159.192 33.044C158.936 33.492 158.592 33.876 158.16 34.196C157.728 34.508 157.224 34.748 156.648 34.916C156.08 35.084 155.484 35.168 154.86 35.168C154.468 35.168 154.068 35.132 153.66 35.06C153.26 34.988 152.868 34.876 152.484 34.724C152.1 34.564 151.736 34.368 151.392 34.136C151.056 33.904 150.756 33.624 150.492 33.296L151.092 32.516C151.188 32.38 151.324 32.312 151.5 32.312C151.644 32.312 151.796 32.376 151.956 32.504C152.124 32.624 152.328 32.76 152.568 32.912C152.808 33.064 153.1 33.204 153.444 33.332C153.796 33.452 154.224 33.512 154.728 33.512C155.168 33.512 155.56 33.46 155.904 33.356C156.256 33.244 156.552 33.092 156.792 32.9C157.032 32.708 157.216 32.48 157.344 32.216C157.472 31.952 157.536 31.664 157.536 31.352C157.536 30.752 157.284 30.268 156.78 29.9C156.284 29.532 155.528 29.348 154.512 29.348H153.132V27.932H154.512C154.952 27.932 155.348 27.888 155.7 27.8C156.052 27.704 156.352 27.576 156.6 27.416C156.848 27.256 157.036 27.064 157.164 26.84C157.292 26.608 157.356 26.36 157.356 26.096C157.356 25.856 157.3 25.628 157.188 25.412C157.084 25.196 156.92 25.008 156.696 24.848C156.48 24.688 156.208 24.56 155.88 24.464C155.552 24.368 155.168 24.32 154.728 24.32C154.248 24.32 153.84 24.368 153.504 24.464C153.176 24.56 152.896 24.664 152.664 24.776C152.44 24.888 152.256 24.992 152.112 25.088C151.968 25.184 151.844 25.232 151.74 25.232C151.636 25.232 151.548 25.212 151.476 25.172C151.412 25.132 151.34 25.048 151.26 24.92L150.768 24.092ZM172.745 22.844V35H170.609V26.744C170.609 26.584 170.617 26.412 170.633 26.228C170.649 26.044 170.669 25.86 170.693 25.676C170.621 25.836 170.549 25.984 170.477 26.12C170.405 26.256 170.329 26.38 170.249 26.492L164.381 34.472C164.293 34.6 164.181 34.724 164.045 34.844C163.917 34.956 163.773 35.012 163.613 35.012H162.317V22.856H164.465V31.112C164.465 31.264 164.457 31.432 164.441 31.616C164.425 31.792 164.405 31.972 164.381 32.156C164.453 32.004 164.525 31.864 164.597 31.736C164.669 31.6 164.741 31.476 164.813 31.364L170.681 23.384C170.769 23.256 170.881 23.136 171.017 23.024C171.153 22.904 171.301 22.844 171.461 22.844H172.745ZM186.226 24.476H181.558V35H179.422V24.476H174.754V22.844H186.226V24.476ZM192.93 33.44C193.362 33.44 193.734 33.388 194.046 33.284C194.366 33.172 194.63 33.02 194.838 32.828C195.046 32.628 195.202 32.396 195.306 32.132C195.41 31.868 195.462 31.58 195.462 31.268C195.462 30.98 195.418 30.712 195.33 30.464C195.242 30.208 195.094 29.984 194.886 29.792C194.686 29.6 194.422 29.448 194.094 29.336C193.766 29.224 193.366 29.168 192.894 29.168H190.314V33.44H192.93ZM192.894 27.608C193.734 27.608 194.438 27.708 195.006 27.908C195.582 28.108 196.042 28.376 196.386 28.712C196.738 29.048 196.99 29.436 197.142 29.876C197.294 30.316 197.37 30.772 197.37 31.244C197.37 31.788 197.274 32.292 197.082 32.756C196.89 33.212 196.606 33.608 196.23 33.944C195.854 34.272 195.39 34.532 194.838 34.724C194.286 34.908 193.65 35 192.93 35H188.262V22.844H190.314V27.608H192.894ZM211.011 22.652C211.899 22.652 212.699 22.8 213.411 23.096C214.123 23.392 214.731 23.812 215.235 24.356C215.739 24.9 216.123 25.56 216.387 26.336C216.659 27.104 216.795 27.964 216.795 28.916C216.795 29.876 216.659 30.74 216.387 31.508C216.123 32.276 215.739 32.932 215.235 33.476C214.731 34.02 214.123 34.44 213.411 34.736C212.699 35.024 211.899 35.168 211.011 35.168C210.115 35.168 209.307 35.024 208.587 34.736C207.875 34.44 207.267 34.02 206.763 33.476C206.259 32.932 205.871 32.276 205.599 31.508C205.335 30.74 205.203 29.876 205.203 28.916C205.203 27.964 205.335 27.104 205.599 26.336C205.871 25.56 206.259 24.9 206.763 24.356C207.267 23.812 207.875 23.392 208.587 23.096C209.307 22.8 210.115 22.652 211.011 22.652ZM211.011 33.5C212.211 33.5 213.107 33.1 213.699 32.3C214.291 31.492 214.587 30.368 214.587 28.928C214.587 27.48 214.291 26.352 213.699 25.544C213.107 24.736 212.211 24.332 211.011 24.332C210.403 24.332 209.871 24.436 209.415 24.644C208.967 24.852 208.591 25.152 208.287 25.544C207.991 25.936 207.767 26.42 207.615 26.996C207.471 27.564 207.399 28.208 207.399 28.928C207.399 30.368 207.695 31.492 208.287 32.3C208.887 33.1 209.795 33.5 211.011 33.5ZM224.989 33.584C226.189 33.584 227.093 33.204 227.701 32.444C228.317 31.676 228.625 30.604 228.625 29.228C228.625 27.86 228.329 26.792 227.737 26.024C227.153 25.256 226.273 24.872 225.097 24.872C224.529 24.872 224.017 24.964 223.561 25.148C223.105 25.324 222.717 25.584 222.397 25.928C222.085 26.272 221.841 26.696 221.665 27.2C221.497 27.704 221.413 28.28 221.413 28.928C221.413 29.656 221.489 30.308 221.641 30.884C221.793 31.46 222.017 31.948 222.313 32.348C222.617 32.748 222.989 33.056 223.429 33.272C223.877 33.48 224.397 33.584 224.989 33.584ZM225.817 19.988C225.001 20.06 224.301 20.24 223.717 20.528C223.141 20.816 222.661 21.208 222.277 21.704C221.893 22.192 221.605 22.78 221.413 23.468C221.221 24.156 221.109 24.932 221.077 25.796C221.269 25.412 221.517 25.068 221.821 24.764C222.125 24.452 222.473 24.188 222.865 23.972C223.257 23.748 223.681 23.58 224.137 23.468C224.601 23.348 225.093 23.288 225.613 23.288C226.421 23.288 227.145 23.432 227.785 23.72C228.433 24 228.981 24.4 229.429 24.92C229.885 25.44 230.233 26.068 230.473 26.804C230.713 27.532 230.833 28.34 230.833 29.228C230.833 30.132 230.693 30.952 230.413 31.688C230.141 32.416 229.749 33.04 229.237 33.56C228.725 34.072 228.109 34.468 227.389 34.748C226.677 35.028 225.877 35.168 224.989 35.168C224.173 35.168 223.409 35.032 222.697 34.76C221.985 34.488 221.369 34.04 220.849 33.416C220.329 32.792 219.917 31.972 219.613 30.956C219.317 29.932 219.169 28.672 219.169 27.176C219.169 25.896 219.285 24.72 219.517 23.648C219.749 22.576 220.121 21.644 220.633 20.852C221.153 20.06 221.821 19.424 222.637 18.944C223.461 18.456 224.461 18.16 225.637 18.056L229.981 17.684L230.101 18.788C230.125 19.036 230.089 19.244 229.993 19.412C229.897 19.58 229.725 19.672 229.477 19.688L225.817 19.988ZM239.773 33.44C240.205 33.44 240.577 33.388 240.889 33.284C241.209 33.172 241.473 33.02 241.681 32.828C241.897 32.628 242.057 32.396 242.161 32.132C242.265 31.868 242.317 31.58 242.317 31.268C242.317 30.98 242.269 30.712 242.173 30.464C242.085 30.208 241.937 29.984 241.729 29.792C241.529 29.6 241.265 29.448 240.937 29.336C240.617 29.224 240.221 29.168 239.749 29.168H236.917V33.44H239.773ZM239.737 27.608C240.577 27.608 241.281 27.708 241.849 27.908C242.425 28.108 242.889 28.376 243.241 28.712C243.593 29.048 243.845 29.436 243.997 29.876C244.149 30.316 244.225 30.772 244.225 31.244C244.225 31.788 244.125 32.292 243.924 32.756C243.733 33.212 243.449 33.608 243.073 33.944C242.697 34.272 242.233 34.532 241.681 34.724C241.129 34.908 240.497 35 239.785 35H234.877V24.512H231.673V22.868H234.877V19.448H236.917V22.868H240.805V24.512H236.917V27.608H239.737ZM252.385 28.52V24.284H250.345C249.889 24.284 249.505 24.352 249.193 24.488C248.881 24.616 248.629 24.784 248.437 24.992C248.253 25.192 248.121 25.42 248.041 25.676C247.961 25.924 247.921 26.172 247.921 26.42C247.921 27.076 248.161 27.592 248.641 27.968C249.121 28.336 249.777 28.52 250.609 28.52H252.385ZM254.425 22.844V35H252.385V29.876H251.449C251.225 29.876 251.037 29.896 250.885 29.936C250.741 29.968 250.613 30.016 250.501 30.08C250.397 30.144 250.305 30.228 250.225 30.332C250.145 30.428 250.061 30.54 249.973 30.668L247.309 34.256C247.173 34.512 247.005 34.7 246.805 34.82C246.613 34.94 246.329 35 245.953 35H244.465L247.993 30.416C248.281 29.936 248.661 29.616 249.133 29.456C248.517 29.376 247.997 29.232 247.573 29.024C247.149 28.816 246.801 28.572 246.529 28.292C246.265 28.004 246.073 27.688 245.953 27.344C245.833 27 245.773 26.652 245.773 26.3C245.773 25.884 245.853 25.468 246.013 25.052C246.181 24.636 246.445 24.268 246.805 23.948C247.165 23.62 247.629 23.356 248.197 23.156C248.773 22.948 249.469 22.844 250.285 22.844H254.425ZM262.493 33.5C263.293 33.5 263.925 33.316 264.389 32.948C264.853 32.572 265.085 32.06 265.085 31.412C265.085 31.124 265.041 30.864 264.953 30.632C264.865 30.392 264.721 30.184 264.521 30.008C264.321 29.832 264.053 29.696 263.717 29.6C263.389 29.504 262.985 29.456 262.505 29.456H259.877V33.5H262.493ZM259.877 24.284V28.1H262.217C262.569 28.1 262.893 28.052 263.189 27.956C263.493 27.852 263.753 27.712 263.969 27.536C264.185 27.352 264.353 27.136 264.473 26.888C264.593 26.632 264.653 26.352 264.653 26.048C264.653 25.824 264.613 25.608 264.533 25.4C264.453 25.184 264.317 24.996 264.125 24.836C263.933 24.668 263.681 24.536 263.369 24.44C263.057 24.336 262.673 24.284 262.217 24.284H259.877ZM262.277 22.844C263.029 22.844 263.673 22.92 264.209 23.072C264.745 23.224 265.185 23.432 265.529 23.696C265.873 23.952 266.125 24.256 266.285 24.608C266.445 24.96 266.525 25.336 266.525 25.736C266.525 26 266.489 26.276 266.417 26.564C266.345 26.852 266.217 27.128 266.033 27.392C265.857 27.656 265.613 27.896 265.301 28.112C264.997 28.32 264.613 28.484 264.149 28.604C265.077 28.764 265.793 29.088 266.297 29.576C266.801 30.056 267.053 30.692 267.053 31.484C267.053 32.076 266.933 32.592 266.693 33.032C266.461 33.464 266.137 33.828 265.721 34.124C265.313 34.42 264.833 34.64 264.281 34.784C263.729 34.928 263.137 35 262.505 35H257.825V22.844H262.277ZM280.387 35H278.251V24.524H274.411C274.315 26.068 274.171 27.404 273.979 28.532C273.787 29.652 273.555 30.608 273.283 31.4C273.019 32.184 272.719 32.824 272.383 33.32C272.055 33.808 271.707 34.188 271.339 34.46C270.979 34.732 270.603 34.916 270.211 35.012C269.827 35.108 269.443 35.156 269.059 35.156C268.379 35.156 268.039 35.048 268.039 34.832V33.476H268.663C268.935 33.476 269.211 33.428 269.491 33.332C269.771 33.236 270.043 33.052 270.307 32.78C270.579 32.508 270.839 32.128 271.087 31.64C271.335 31.144 271.559 30.504 271.759 29.72C271.967 28.928 272.143 27.972 272.287 26.852C272.439 25.724 272.555 24.388 272.635 22.844H280.387V35ZM291.906 27.596C291.906 27.1 291.834 26.648 291.69 26.24C291.554 25.824 291.35 25.468 291.078 25.172C290.814 24.868 290.49 24.636 290.106 24.476C289.722 24.308 289.286 24.224 288.798 24.224C287.774 24.224 286.962 24.524 286.362 25.124C285.77 25.716 285.402 26.54 285.258 27.596H291.906ZM293.634 33.296C293.37 33.616 293.054 33.896 292.686 34.136C292.318 34.368 291.922 34.56 291.498 34.712C291.082 34.864 290.65 34.976 290.202 35.048C289.754 35.128 289.31 35.168 288.87 35.168C288.03 35.168 287.254 35.028 286.542 34.748C285.838 34.46 285.226 34.044 284.706 33.5C284.194 32.948 283.794 32.268 283.506 31.46C283.218 30.652 283.074 29.724 283.074 28.676C283.074 27.828 283.202 27.036 283.458 26.3C283.722 25.564 284.098 24.928 284.586 24.392C285.074 23.848 285.67 23.424 286.374 23.12C287.078 22.808 287.87 22.652 288.75 22.652C289.478 22.652 290.15 22.776 290.766 23.024C291.39 23.264 291.926 23.616 292.374 24.08C292.83 24.536 293.186 25.104 293.442 25.784C293.698 26.456 293.826 27.224 293.826 28.088C293.826 28.424 293.79 28.648 293.718 28.76C293.646 28.872 293.51 28.928 293.31 28.928H285.186C285.21 29.696 285.314 30.364 285.498 30.932C285.69 31.5 285.954 31.976 286.29 32.36C286.626 32.736 287.026 33.02 287.49 33.212C287.954 33.396 288.474 33.488 289.05 33.488C289.586 33.488 290.046 33.428 290.43 33.308C290.822 33.18 291.158 33.044 291.438 32.9C291.718 32.756 291.95 32.624 292.134 32.504C292.326 32.376 292.49 32.312 292.626 32.312C292.802 32.312 292.938 32.38 293.034 32.516L293.634 33.296ZM306.578 22.844V35H304.43V29.312H298.598V35H296.45V22.844H298.598V27.692H304.43V22.844H306.578ZM320.401 22.844V35H318.265V26.744C318.265 26.584 318.273 26.412 318.289 26.228C318.305 26.044 318.325 25.86 318.349 25.676C318.277 25.836 318.205 25.984 318.133 26.12C318.061 26.256 317.985 26.38 317.905 26.492L312.037 34.472C311.949 34.6 311.837 34.724 311.701 34.844C311.573 34.956 311.429 35.012 311.269 35.012H309.973V22.856H312.121V31.112C312.121 31.264 312.113 31.432 312.097 31.616C312.081 31.792 312.061 31.972 312.037 32.156C312.109 32.004 312.181 31.864 312.253 31.736C312.325 31.6 312.397 31.476 312.469 31.364L318.337 23.384C318.425 23.256 318.537 23.136 318.673 23.024C318.809 22.904 318.957 22.844 319.117 22.844H320.401ZM331.914 27.596C331.914 27.1 331.842 26.648 331.698 26.24C331.562 25.824 331.358 25.468 331.086 25.172C330.822 24.868 330.498 24.636 330.114 24.476C329.73 24.308 329.294 24.224 328.806 24.224C327.782 24.224 326.97 24.524 326.37 25.124C325.778 25.716 325.41 26.54 325.266 27.596H331.914ZM333.642 33.296C333.378 33.616 333.062 33.896 332.694 34.136C332.326 34.368 331.93 34.56 331.506 34.712C331.09 34.864 330.658 34.976 330.21 35.048C329.762 35.128 329.318 35.168 328.878 35.168C328.038 35.168 327.262 35.028 326.55 34.748C325.846 34.46 325.234 34.044 324.714 33.5C324.202 32.948 323.802 32.268 323.514 31.46C323.226 30.652 323.082 29.724 323.082 28.676C323.082 27.828 323.21 27.036 323.466 26.3C323.73 25.564 324.106 24.928 324.594 24.392C325.082 23.848 325.678 23.424 326.382 23.12C327.086 22.808 327.878 22.652 328.758 22.652C329.486 22.652 330.158 22.776 330.774 23.024C331.398 23.264 331.934 23.616 332.382 24.08C332.838 24.536 333.194 25.104 333.45 25.784C333.706 26.456 333.834 27.224 333.834 28.088C333.834 28.424 333.798 28.648 333.726 28.76C333.654 28.872 333.518 28.928 333.318 28.928H325.194C325.218 29.696 325.322 30.364 325.506 30.932C325.698 31.5 325.962 31.976 326.298 32.36C326.634 32.736 327.034 33.02 327.498 33.212C327.962 33.396 328.482 33.488 329.058 33.488C329.594 33.488 330.054 33.428 330.438 33.308C330.83 33.18 331.166 33.044 331.446 32.9C331.726 32.756 331.958 32.624 332.142 32.504C332.334 32.376 332.498 32.312 332.634 32.312C332.81 32.312 332.946 32.38 333.042 32.516L333.642 33.296Z" fill="white"/>
</svg>
