<svg width="2051" height="610" viewBox="0 0 2051 610" fill="none" xmlns="http://www.w3.org/2000/svg">
<path fill-rule="evenodd" clip-rule="evenodd" d="M1743.07 105.554C1709.97 111.984 1683.61 134.941 1673.07 166.515C1669.12 178.321 1667.58 189.071 1667.58 204.627C1667.58 232.716 1674.18 255.215 1687.79 273.627C1709.59 303.097 1742.66 314.816 1787.57 308.986C1804.46 306.794 1822.82 299.674 1835.31 290.482C1835.31 290.482 1838.88 288.545 1840.54 286.627C1845.81 280.558 1843.19 273.2 1839.47 266.073C1837.3 261.905 1832.44 257.593 1831.47 257.073C1827.16 254.765 1821.57 256.021 1811.06 261.655C1795.5 270.003 1788.2 272.26 1774.81 272.868C1761.69 273.464 1753.95 272.224 1744.76 268.058C1729.51 261.142 1717.99 241.903 1715.92 219.877L1715.29 213.127H1779.87H1844.46L1847.27 210.713L1850.07 208.298L1850.07 191.963C1850.06 172.888 1848.33 164.694 1841.16 149.627C1830.61 127.471 1813.97 113.658 1789.87 107.065C1779.84 104.32 1753.76 103.478 1743.07 105.554ZM1801.89 159.524C1796.97 149.474 1785.92 141.402 1774.1 139.216C1766.51 137.814 1759.64 137.946 1751.82 139.643C1735.59 143.171 1724.48 154.512 1718.67 173.482C1715.03 185.387 1709.89 184.127 1762.07 184.127H1807.57L1807.56 180.877C1807.54 175.754 1804.81 165.483 1801.89 159.524Z" fill="black"/>
<path fill-rule="evenodd" clip-rule="evenodd" d="M375.759 20.7785C374.94 9.90945 379.274 2.90945 388.23 0.635453C395.973 -1.33055 403.17 1.33145 407.348 7.70445C408.582 9.58745 409.96 11.1274 410.408 11.1274C411.246 11.1274 412.779 9.65645 416.882 4.91845C419.821 1.52445 423.426 0.127449 429.252 0.127449C439.488 0.127449 447.181 9.04145 446.39 19.9855C445.944 26.1485 443.173 32.7874 438.833 38.0904C435.26 42.4564 424.271 53.6144 422.426 54.7494C421.641 55.2324 419.032 57.9904 416.629 60.8774C414.226 63.7644 411.825 66.1274 411.294 66.1274C410.348 66.1274 384.548 40.5254 381.552 36.6134C378.405 32.5044 376.185 26.4365 375.759 20.7785ZM1351.6 48.3455C1351.55 34.0615 1358.88 23.9265 1372.87 18.9285C1383.56 15.1125 1396.56 18.8735 1404.96 28.2075C1410.71 34.6055 1412.92 41.0954 1412.38 49.9614C1411.7 61.2014 1405.86 69.8305 1395.39 75.0595C1390.15 77.6805 1388.14 78.1274 1381.61 78.1274C1372.27 78.1274 1365.86 75.3344 1359.58 68.5194C1353.59 62.0174 1351.62 57.0515 1351.6 48.3455ZM1581.57 122.174V69.6504V17.1274H1606H1630.43L1630.25 162.377L1630.07 307.627L1615.28 307.904C1591.75 308.345 1590.58 307.616 1586.66 290.091L1584.42 280.032L1577.71 286.362C1570.32 293.328 1559.27 301.048 1552.2 304.175C1542.54 308.445 1519.93 312.354 1515.26 310.56C1513.75 309.98 1513.57 307.637 1513.57 288.003V266.093L1518.82 268.771C1523.18 270.995 1525.77 271.527 1534.08 271.908C1551.27 272.697 1561.24 268.824 1574.69 256.127L1581.57 249.626V203.589V157.552L1576.82 152.992C1570.74 147.157 1566.72 144.825 1558.22 142.225C1545.63 138.373 1530.12 139.808 1519.93 145.769C1514.83 148.751 1507.17 156.804 1504.9 161.575L1503.2 165.127H1477.4H1451.6L1453.58 160.107C1464.7 131.892 1485.39 112.394 1511.57 105.444C1520.83 102.986 1543.82 103.015 1552.01 105.495C1560.09 107.941 1570.1 113.102 1576.37 118.06L1581.57 122.174ZM1064.57 242.672V133.465V24.2574L1090.82 24.4425L1117.07 24.6274L1117.33 85.3774L1117.59 146.127H1184.08H1250.57V85.2205V24.3144L1277.07 24.2554L1303.57 24.1954V146.596V268.997L1298.22 263.643C1288.25 253.671 1274.54 246.61 1258.92 243.394L1250.57 241.676V212.902V184.127H1184.07H1117.57L1117.54 230.377L1117.51 276.627L1115.31 273.627C1104.9 259.394 1087.54 247.962 1070.32 243.997L1064.57 242.672ZM382.047 104.127C382.061 92.8524 382.437 83.0654 382.882 82.3774C383.496 81.4284 390.172 81.1274 410.606 81.1274H437.522L438.917 83.8774C440.057 86.1254 440.264 94.2085 440.047 128.127C439.844 159.94 440.079 170.345 441.055 172.705C442.218 175.519 447.51 179.127 450.474 179.127C451.079 179.127 451.573 179.577 451.573 180.127C451.573 180.677 452.216 181.127 453.002 181.127C453.787 181.127 455.036 181.69 455.776 182.377C456.516 183.065 460.711 185.492 465.097 187.77C469.484 190.049 475.548 193.199 478.573 194.77C481.598 196.342 484.298 197.852 484.573 198.127C485.218 198.772 488.266 200.485 497.005 205.116C514.822 214.558 520.108 217.48 520.573 218.144C520.848 218.536 522.086 219.173 523.323 219.56C524.56 219.946 525.573 220.681 525.573 221.194C525.573 221.707 526.258 222.127 527.094 222.127C527.93 222.127 530.292 223.152 532.344 224.405C534.395 225.658 537.761 227.561 539.823 228.633C541.886 229.705 543.573 230.929 543.573 231.354C543.573 231.779 544.212 232.127 544.992 232.127C546.661 232.127 552.923 235.29 553.406 236.377C553.59 236.79 554.346 237.127 555.086 237.127C555.826 237.127 557.033 237.69 557.769 238.377C558.506 239.065 561.26 240.752 563.888 242.127C570.063 245.358 571.976 248.329 571.99 254.708C572 258.981 571.291 260.948 567.537 267.072C565.082 271.077 562.623 275.09 562.073 275.99C561.523 276.891 556.798 284.809 551.573 293.587C546.348 302.364 540.403 311.252 538.363 313.337C534.957 316.816 534.2 317.127 529.147 317.127C524.34 317.127 517.145 314.946 515.573 313.012C515.298 312.673 514.06 312.081 512.823 311.694C511.586 311.308 510.573 310.573 510.573 310.06C510.573 309.547 509.934 309.127 509.154 309.127C507.841 309.127 501.718 306.271 500.574 305.125C499.861 304.412 495.541 302.337 492.406 301.204L489.739 300.239L489.339 306.933C489.12 310.615 488.947 379.55 488.955 460.123L488.97 606.619L486.521 607.861C484.604 608.833 457.719 609.05 362.573 608.864L241.073 608.627L241.317 605.447C241.452 603.697 243.813 598.522 246.565 593.947C249.318 589.371 251.57 585.113 251.571 584.484C251.572 583.855 252.17 583.112 252.899 582.832C253.628 582.552 255.541 579.705 257.149 576.504C258.757 573.304 260.563 570.15 261.162 569.496C261.76 568.842 263.466 565.904 264.952 562.967C266.438 560.03 268.157 556.727 268.771 555.627C270.608 552.34 271.276 551.007 275.544 542.127C277.79 537.452 280.292 532.353 281.102 530.796C281.911 529.239 282.573 527.101 282.573 526.046C282.573 524.991 282.983 524.127 283.485 524.127C283.987 524.127 284.701 522.327 285.073 520.127C285.445 517.927 286.108 516.127 286.547 516.127C286.987 516.127 287.581 514.89 287.867 513.377C288.392 510.608 291.422 498.744 294.442 487.627C295.653 483.174 297.131 480.562 300.178 477.496C305.733 471.905 307.884 471.591 337.573 472.043C347.922 472.2 365.265 470.895 377.155 469.064C380.5 468.548 385.835 468.127 389.011 468.127C400.046 468.127 414.366 462.799 421.382 456.083C424.397 453.197 434.316 434.652 433.794 432.877C433.672 432.464 433.921 432.127 434.346 432.127C435.277 432.127 437.826 427.045 439.509 421.832C440.483 418.816 440.475 417.022 439.468 413.093C438.144 407.929 432.806 401.127 430.076 401.127C429.25 401.127 428.573 400.726 428.573 400.235C428.573 399.307 426.017 398.508 415.573 396.174C413.648 395.743 409.598 394.486 406.573 393.38C403.548 392.273 398.373 390.624 395.073 389.715C391.773 388.806 387.691 387.626 386.002 387.094C384.313 386.562 382.031 386.127 380.93 386.127C374.305 386.127 358.421 378.657 351.955 372.5C347.124 367.9 338.659 355.544 338.5 352.859C338.46 352.182 337.565 350.277 336.511 348.627C335.457 346.977 334.3 344.952 333.939 344.127C332.737 341.377 317.276 327.127 315.495 327.127C314.529 327.127 313.59 326.79 313.406 326.377C312.681 324.745 297.864 319.112 294.323 319.122C293.361 319.125 292.573 318.677 292.573 318.127C292.573 317.577 291.259 317.127 289.654 317.127C285.913 317.127 280.751 314.205 279.936 311.627C279.588 310.527 278.804 309.307 278.194 308.917C277.559 308.511 277.082 305.272 277.079 301.344C277.073 294.71 278.123 291.448 283.662 280.891C284.163 279.936 284.576 278.586 284.579 277.891C284.583 277.196 285.16 275.502 285.862 274.127C289.069 267.845 291.668 254.461 292.303 240.966C292.685 232.844 292.579 232.264 290.593 231.633C287.691 230.712 285.776 232.146 273.421 244.487C267.563 250.339 262.302 255.127 261.73 255.127C259.68 255.127 259.4 252.904 260.656 246.586C261.712 241.275 261.699 239.731 260.584 237.647C259.842 236.261 258.867 235.127 258.417 235.127C256.187 235.127 249.601 241.155 246.709 245.844C244.916 248.75 243.028 251.127 242.511 251.127C241.995 251.127 241.573 251.54 241.573 252.045C241.573 252.929 189.193 305.758 182.746 311.377C181.01 312.889 179.174 314.127 178.665 314.127C178.156 314.127 177.59 314.526 177.406 315.015C177.223 315.503 174.711 318.453 171.823 321.57C168.936 324.687 166.573 327.555 166.573 327.943C166.573 328.331 165.007 330.444 163.092 332.638C161.178 334.832 159.603 336.957 159.592 337.361C159.575 338.03 149.987 351.99 147.59 354.835C147.031 355.499 146.573 356.317 146.573 356.652C146.573 357.285 141.552 364.251 140.463 365.127C140.122 365.402 139.527 366.639 139.14 367.877C138.754 369.114 138.019 370.127 137.506 370.127C136.993 370.127 136.573 370.596 136.573 371.169C136.573 371.742 135.644 373.204 134.509 374.419C133.373 375.633 131.094 378.877 129.445 381.627C127.795 384.377 125.461 388.054 124.259 389.798C123.057 391.542 119.598 396.898 116.573 401.7C113.548 406.503 110.598 410.926 110.017 411.53C109.436 412.133 108.631 413.302 108.228 414.127C107.06 416.516 105.246 419.427 102.823 422.802C101.586 424.526 100.573 426.191 100.573 426.502C100.573 427.36 94.1825 436.579 93.3235 436.96C92.9115 437.144 92.5735 437.853 92.5735 438.536C92.5735 439.219 91.4485 440.835 90.0735 442.127C88.6985 443.419 87.5735 445.072 87.5735 445.801C87.5735 446.53 87.2355 447.137 86.8235 447.149C86.4115 447.162 84.4985 449.405 82.5735 452.134C79.3455 456.71 76.1675 459.055 74.9055 457.792C74.6205 457.507 74.3165 423.379 74.2305 381.951L74.0735 306.627L71.4605 306.324C69.7865 306.13 65.0575 308.017 58.3065 311.574C49.6105 316.155 46.8945 317.127 42.7905 317.127C38.3745 317.127 37.3795 316.7 33.9445 313.325C31.8155 311.234 27.4245 305.047 24.1855 299.575C20.9475 294.104 18.0135 289.402 17.6655 289.127C17.3175 288.852 16.4895 287.502 15.8255 286.127C15.1615 284.752 13.5055 281.827 12.1465 279.627C10.7865 277.427 8.63848 273.602 7.37348 271.127C6.10848 268.652 4.73648 266.477 4.32348 266.294C3.91048 266.11 3.57348 265.323 3.57348 264.544C3.57348 263.764 3.14048 263.127 2.61248 263.127C1.20948 263.127 -0.460519 256.084 0.117481 252.609C1.00148 247.297 2.87548 245.039 9.70948 241.048C13.4015 238.891 16.9065 237.127 17.4975 237.127C18.0895 237.127 18.5825 236.79 18.5945 236.377C18.6055 235.964 21.9805 234.053 26.0945 232.13C30.2075 230.207 33.5735 228.294 33.5735 227.88C33.5735 227.466 34.2115 227.127 34.9905 227.127C35.7695 227.127 36.5565 226.79 36.7405 226.377C36.9235 225.964 40.2235 224.08 44.0735 222.188C47.9235 220.297 51.2985 218.497 51.5735 218.188C52.4175 217.241 59.8125 213.176 64.8235 210.905C67.4355 209.721 69.5735 208.387 69.5735 207.94C69.5735 207.493 70.2165 207.127 71.0025 207.127C71.7875 207.127 73.0385 206.565 73.7815 205.877C74.5245 205.19 77.8185 203.299 81.1025 201.675C84.3865 200.052 88.6485 197.755 90.5735 196.571C92.4985 195.387 98.0085 192.36 102.818 189.844C107.628 187.328 112.873 184.338 114.473 183.198C116.073 182.059 118.062 181.127 118.894 181.127C119.726 181.127 120.556 180.79 120.74 180.377C121.089 179.59 126.665 176.494 137.573 171.029C141.148 169.238 144.307 167.431 144.592 167.014C144.878 166.596 150.053 163.692 156.092 160.56C162.132 157.428 167.298 154.587 167.573 154.246C167.848 153.906 170.998 152.139 174.573 150.321C178.148 148.502 182.423 146.17 184.073 145.138C185.723 144.106 189.998 141.771 193.573 139.949C197.148 138.128 200.298 136.41 200.573 136.132C200.848 135.854 202.648 134.816 204.573 133.825C209.691 131.19 217.12 127.125 225.073 122.607C233.582 117.774 240.583 113.968 246.573 110.918C249.048 109.658 251.223 108.289 251.406 107.877C251.59 107.465 252.454 107.127 253.328 107.127C254.201 107.127 255.626 106.518 256.494 105.775C257.363 105.031 261.66 102.501 266.045 100.152C270.429 97.8044 274.965 95.2614 276.125 94.5014C277.284 93.7424 278.534 93.4224 278.903 93.7904C279.271 94.1594 279.573 93.9715 279.573 93.3735C279.573 92.1335 285.078 90.6195 288.073 91.0375C289.173 91.1905 292.548 92.7775 295.573 94.5635C298.598 96.3495 303.098 98.8315 305.573 100.078C308.048 101.325 310.298 102.646 310.573 103.014C310.848 103.382 313.098 104.557 315.573 105.627C318.048 106.697 320.301 107.809 320.579 108.099C321.304 108.855 328.305 112.787 333.573 115.397C336.048 116.624 338.298 117.852 338.574 118.127C338.849 118.402 340.649 119.486 342.574 120.535C356.316 128.03 362.659 131.425 366.573 133.38C369.048 134.616 371.298 135.852 371.573 136.127C371.848 136.402 373.792 137.502 375.893 138.572C377.573 139.428 378.791 140.058 379.675 139.745C382.014 138.916 382.013 131.48 382.047 104.127ZM1358.04 256.127C1357.78 256.127 1357.57 222.602 1357.57 181.627V107.127H1382.07H1406.57V173.975V240.824L1397.82 242.037C1387.29 243.498 1373.36 247.986 1364.79 252.683C1361.33 254.577 1358.3 256.127 1358.04 256.127ZM1458.57 286.328V238.227V190.127H1473.57H1488.57V279.179V368.231L1485.32 369.351C1480.85 370.893 1468.2 377.598 1462.93 381.225L1458.57 384.223V346.893V309.564L1452.82 303.712C1439.91 290.567 1420.32 286.206 1401.13 292.206C1380.62 298.617 1369.19 318.457 1367.85 349.949L1367.28 363.271L1364.68 362.581C1363.25 362.201 1356.22 361.606 1349.07 361.259L1336.07 360.627L1336.34 352.127C1337.96 300.471 1367.63 266.067 1410.48 266.144C1415.76 266.154 1423.11 266.806 1426.83 267.594C1435.42 269.415 1446.32 275.124 1453.2 281.419L1458.57 286.328ZM981.863 291.313C991.673 280.845 1013.41 269.999 1030.23 267.175C1032.9 266.728 1040.06 266.309 1046.16 266.245C1076.31 265.925 1095.81 279.75 1104.51 307.614L1107.02 315.627L1107.35 378.877L1107.68 442.127H1098.08C1085.82 442.127 1084.84 441.267 1082.2 428.195L1080.35 419.045L1077.21 421.622C1054.99 439.878 1043.63 444.482 1020.57 444.573C1004.56 444.637 998.893 443.236 989.427 436.874C977.003 428.524 971.1 416.51 971.128 399.627C971.141 391.624 971.496 389.876 974.318 383.853C984.307 362.532 1014.22 349.543 1061.62 345.939L1077.78 344.71L1077.41 330.169C1077.06 316.41 1076.87 315.277 1073.97 309.12C1068.64 297.811 1060.39 291.909 1048.06 290.589C1035.13 289.204 1021.22 293.168 1007.59 302.116C997.085 309.013 994.554 309.779 989.905 307.468C987.233 306.14 985.289 303.961 982.927 299.649L979.654 293.671L981.863 291.313ZM1189.03 288.24C1200.04 277.668 1213.09 270.518 1226.57 267.662C1240.26 264.765 1256.31 266.513 1268.22 272.195C1277.37 276.563 1286.32 285.669 1290.91 295.269C1297.32 308.689 1297.82 311.827 1298.3 341.201L1298.74 367.775L1289.41 372.31C1284.27 374.804 1277.6 378.718 1274.57 381.008L1269.07 385.172L1268.46 352.899C1267.73 314.581 1267.18 311.655 1258.85 301.348C1250.36 290.845 1232.29 287.518 1215.07 293.291C1206.98 296.004 1199.31 300.797 1191.27 308.17L1184.57 314.304V378.216V442.127H1169.57H1154.57V355.627V269.127H1165.5C1175.95 269.127 1176.51 269.235 1178.39 271.617C1179.75 273.347 1180.73 277.162 1181.62 284.12L1182.9 294.133L1189.03 288.24ZM1865.57 589.127V443.627V298.127H1889.57H1913.57V381.73V465.332L1921.99 464.98C1929.33 464.672 1930.76 464.305 1933.08 462.127C1934.55 460.752 1945.02 448.152 1956.35 434.127C1986.85 396.394 1990.37 392.292 1993.87 390.4C1996.61 388.923 2000.65 388.633 2021.82 388.388C2035.44 388.231 2046.57 388.358 2046.57 388.671C2046.57 390.57 1977.82 471.539 1974.09 474.033L1970.49 476.439L1974.44 480.226C1976.6 482.31 1984.53 492.927 1992.04 503.821C2009.29 528.834 2029.1 557.64 2041.23 575.377L2050.64 589.127L2025.86 589.125C2004.27 589.124 2000.62 588.899 1997.57 587.375C1994 585.59 1993.56 584.97 1949.43 519.389C1942.31 508.808 1935.49 499.608 1934.28 498.944C1933.07 498.28 1927.91 497.547 1922.82 497.313L1913.57 496.888V543.008V589.127H1889.57H1865.57ZM208.568 354.624C209.693 355.319 213.561 351.639 220.128 343.625C222.155 341.151 224.173 339.127 224.612 339.127C226.695 339.127 228.573 340.505 228.573 342.034C228.573 342.965 229.064 344.218 229.663 344.817C231.409 346.563 233.242 362.974 232.358 368.941C231.409 375.351 232.213 377.116 237.254 379.682C239.354 380.752 241.223 381.964 241.406 382.377C241.59 382.79 242.279 383.127 242.939 383.127C245.914 383.127 255.661 392.691 258.606 398.5C264.611 410.341 266.702 412.663 279.823 422.063C284.817 425.641 284.85 425.732 284.593 435.127C284.335 444.571 280.198 455.946 275.362 460.513C273.259 462.498 263.364 464.78 255.021 465.202C247.594 465.579 240.304 470.171 237.107 476.487C236.233 478.214 235.132 480.302 234.661 481.127C231.314 486.99 230.365 492.522 230.46 505.627C230.537 516.174 231.213 522.503 234.523 543.627C236.845 558.448 236.612 566.051 233.452 578.627C232.899 580.827 231.775 585.327 230.955 588.627C230.135 591.927 229.011 596.427 228.457 598.627C227.903 600.827 227.208 603.824 226.911 605.287C226.587 606.886 225.516 608.178 224.223 608.529C223.04 608.85 189.381 609.104 149.425 609.094C83.5495 609.078 76.6505 608.925 75.4255 607.449C74.3465 606.15 74.0155 597.13 73.7835 562.724C73.6245 539.021 73.7595 517.377 74.0835 514.627C74.6335 509.965 75.3285 508.936 84.3735 499.388C95.3135 487.839 100.573 482.009 100.573 481.432C100.573 481.216 102.116 479.372 104.001 477.333C109.492 471.397 116.856 460.791 118.204 456.877C118.535 455.915 119.204 455.127 119.69 455.127C120.175 455.127 120.573 454.668 120.573 454.106C120.573 452.659 126.918 439.696 127.823 439.294C128.235 439.11 128.573 438.445 128.573 437.815C128.573 437.185 131.439 430.81 134.941 423.648C142.785 407.611 144.573 403.634 144.573 402.226C144.573 401.621 145.023 401.127 145.573 401.127C146.123 401.127 146.573 400.565 146.572 399.877C146.572 399.19 148.259 395.267 150.322 391.159C153.788 384.259 160.424 376.365 167.734 370.449C168.342 369.957 169.357 369.136 170.566 368.158C172.269 366.78 174.357 365.09 176.234 363.57C179.445 360.972 183.423 357.579 185.073 356.03L186.492 354.699C188.393 352.914 191.162 350.315 193.444 348.171C200.431 341.61 202.034 341.66 205.075 348.535C206.39 351.509 207.962 354.249 208.568 354.624ZM1077.57 400.702V382.415V364.127L1073.82 364.302C1049.98 365.412 1026.82 369.927 1015.48 375.673C1003.8 381.595 998.221 391.754 1000.48 403.013C1002.24 411.828 1006.01 417.095 1013.07 420.627C1018.54 423.361 1019.96 423.627 1029.07 423.625C1040.14 423.622 1046.07 422.298 1055.07 417.828C1062.28 414.246 1066.5 411.25 1072.82 405.228L1077.57 400.702ZM1299.69 394.75C1309.82 389.834 1317.08 387.663 1328.07 386.268C1348.53 383.673 1369.17 386.843 1386.07 395.176C1395.06 399.606 1407.58 408.46 1407.56 410.372C1407.55 412.36 1395.85 429.819 1393.37 431.557C1389.77 434.081 1384.95 433.404 1375.21 429.004C1362.33 423.192 1359.09 422.151 1350.45 421.06C1328.68 418.309 1312.57 427.16 1312.57 441.872C1312.57 454.49 1318.56 458.816 1351.04 469.654C1361.76 473.231 1373.8 477.66 1377.8 479.496C1392.37 486.187 1402.84 496.506 1407.73 509.008C1409.49 513.527 1409.94 516.78 1409.99 525.627C1410.07 538.264 1408.73 544.745 1404.01 554.627C1395.95 571.511 1380.33 583.526 1359.02 589.238C1347.88 592.224 1324.39 592.974 1311.4 590.759C1294.63 587.9 1278.3 581.302 1266.74 572.718C1260.75 568.26 1260.49 567.901 1261.81 565.821C1262.58 564.614 1265.51 559.802 1268.32 555.127C1274.12 545.457 1277.19 543.127 1284.1 543.127C1287.95 543.127 1290.44 544.062 1297.59 548.191C1317.88 559.899 1337.39 562.094 1352.57 554.377C1362.13 549.519 1367.44 538.486 1364.56 529.452C1361.68 520.428 1351.78 514.527 1326.3 506.658C1309.25 501.39 1296.04 495.919 1289.48 491.41C1274.26 480.937 1266.57 466.072 1266.57 447.127C1266.57 423.82 1278.43 405.065 1299.69 394.75ZM1455.95 421.45C1471.24 401.27 1495.42 388.244 1522.07 385.826C1554.66 382.87 1585.05 394.618 1601.27 416.437C1607.32 424.586 1613.9 438.566 1616.64 449.127C1619.3 459.383 1620.44 481.286 1618.65 487.87C1618.25 489.335 1618.05 490.505 1617.47 491.439C1615.05 495.344 1605.99 495.127 1548.12 495.127H1484.57V498.669C1484.57 500.617 1485.29 505.677 1486.16 509.912C1492.58 540.979 1513.03 556.844 1544.03 554.807C1555.8 554.035 1564.52 551.303 1578.18 544.116C1590.23 537.775 1594.67 536.452 1598.71 537.99C1600.15 538.538 1605.03 543.622 1609.56 549.289L1617.78 559.591L1610.82 566.225C1599.45 577.072 1583.11 585.321 1565.28 589.223C1552.03 592.122 1527.96 592.862 1515.83 590.744C1482 584.836 1457.52 565.113 1444.6 533.351C1435.49 510.977 1433.54 480.075 1439.69 455.627C1442.23 445.525 1449.87 429.482 1455.95 421.45ZM1711.58 389.714C1716.25 388.269 1723.45 386.673 1727.57 386.168C1736.95 385.02 1752.82 385.634 1762.72 387.529C1800.93 394.839 1826.14 425.782 1828.45 468.186C1829.24 482.765 1828.44 489.709 1825.64 492.507C1823.53 494.619 1823.25 494.628 1758.42 494.898L1693.32 495.171L1694 501.398C1695.71 516.919 1701.45 530.643 1710.19 540.075C1720.08 550.764 1734.56 555.793 1752.57 554.804C1764.6 554.144 1772.81 551.593 1788.07 543.773C1800.79 537.258 1806.38 536.078 1810.09 539.127C1811.09 539.952 1815.23 544.783 1819.28 549.862C1826.51 558.933 1826.61 559.142 1825.02 561.567C1822.58 565.288 1812.33 573.339 1803.84 578.196C1774.58 594.936 1726.99 596.804 1698.07 582.35C1672.99 569.811 1655.02 545.668 1648.44 515.653C1645.56 502.567 1644.84 477.544 1646.97 465.313C1653.55 427.591 1676.7 400.51 1711.58 389.714ZM1576.14 459.877C1573.96 440.309 1564.01 427.166 1547.48 422.022C1540.12 419.729 1526.59 419.582 1518.68 421.71C1507.06 424.835 1498.28 431.904 1492.24 442.99C1489.27 448.447 1485.57 460.035 1485.57 463.874V466.127H1531.2H1576.83L1576.14 459.877ZM1772.28 430.48C1770.08 428.495 1765.31 425.507 1761.68 423.841C1755.9 421.193 1753.75 420.772 1744.57 420.494C1728.87 420.019 1718.71 423.282 1710.22 431.534C1703.17 438.387 1696.93 450.918 1695.1 461.877L1694.4 466.127H1739.99H1785.57V461.837C1785.57 451.524 1779.37 436.883 1772.28 430.48Z" fill="black"/>
</svg>
