<svg width="36" height="28" viewBox="0 0 36 28" fill="none" xmlns="http://www.w3.org/2000/svg">
<path fill-rule="evenodd" clip-rule="evenodd" d="M2.6686 0.59723C1.64004 0.799864 0.794394 1.70219 0.479974 2.93262C0.330443 3.51806 0.319624 4.31621 0.454047 4.84694C0.682105 5.74703 1.40427 6.86164 2.44005 7.91209C3.10041 8.58179 3.13342 8.60637 6.69905 11.0798C10.3114 13.5856 12.5346 15.14 13.7248 15.992C15.7159 17.4173 16.6419 17.8854 17.5797 17.9405C18.8129 18.0129 19.3664 17.7215 23.4119 14.8693C24.2906 14.2498 26.5764 12.6555 28.4914 11.3264C30.4064 9.99736 32.1702 8.75 32.4108 8.55447C33.4319 7.72495 34.3979 6.50298 34.8035 5.52772C35.283 4.37489 35.3039 3.15088 34.8599 2.23274C34.514 1.51755 33.5462 0.763892 32.7629 0.599719C32.3636 0.516014 3.0932 0.513587 2.6686 0.59723ZM0.357923 17.3072C0.358732 25.8547 0.34754 25.5395 0.672592 26.2115C0.749752 26.3711 0.9941 26.6939 1.21557 26.9289C1.52794 27.2603 1.73734 27.4153 2.14882 27.6193L2.67936 27.8825L17.5128 27.9008C28.3805 27.9143 32.446 27.9003 32.7194 27.8486C33.5261 27.696 34.5035 26.9484 34.8599 26.2115C35.1849 25.5395 35.1737 25.8549 35.1745 17.3041L35.1753 9.33967L34.6934 9.80972C33.9856 10.5002 33.7885 10.6483 31.5069 12.2021C28.8813 13.9902 25.8617 16.096 23.4571 17.8158C21.9959 18.8608 21.4143 19.2381 20.7817 19.5513C18.4617 20.6999 17.0719 20.6998 14.7488 19.5507C14.1321 19.2457 13.5603 18.8789 12.3551 18.0152C9.29511 15.8225 6.34919 13.7671 3.21724 11.6395C1.78267 10.6651 1.48006 10.4334 0.870123 9.84258L0.357178 9.34577L0.357923 17.3072Z" fill="#373737"/>
</svg>
