<svg width="20" height="18" viewBox="0 0 20 18" fill="none" xmlns="http://www.w3.org/2000/svg">
<path fill-rule="evenodd" clip-rule="evenodd" d="M16.1474 0.425477C16.7657 0.58255 16.9752 0.71079 17.4322 1.21212C17.7885 1.60298 17.9253 1.67959 18.7169 1.93204C19.2043 2.08738 19.6975 2.28326 19.813 2.36729C20.0097 2.51036 20.0205 2.56445 19.9827 3.21654C19.9001 4.64558 19.4974 5.00604 17.8678 5.10993C17.3114 5.14536 16.7738 5.20595 16.6729 5.24458C16.3439 5.37044 15.4833 7.73862 15.4824 8.52078C15.4816 9.19172 15.236 10.7035 15.076 11.0233C14.996 11.1831 14.6783 11.6125 14.3699 11.9778C14.0615 12.3432 13.7311 12.8002 13.6357 12.9934C13.3622 13.5471 12.6476 15.4227 12.6476 15.5866C12.6476 15.6681 12.751 15.8347 12.8775 15.9568C13.4263 16.4865 13.4674 17.0414 12.9887 17.4576C12.765 17.6521 12.6326 17.689 12.1576 17.689C11.2362 17.689 11.0629 17.5419 10.7801 16.5201C10.6183 15.9358 10.6184 15.9303 10.8353 14.8309C11.081 13.5839 11.1023 13.0641 10.9315 12.474L10.813 12.0644L10.1575 11.9593C9.34617 11.8291 8.42611 11.5629 7.34142 11.1446C5.86457 10.5751 5.54108 10.6771 4.6468 11.9951C4.02054 12.9181 3.60774 13.2908 2.85505 13.6132C1.9364 14.0066 1.92648 14.0203 1.92648 14.8934C1.92648 15.6302 1.93037 15.6432 2.24519 15.9547C2.66109 16.3664 2.75563 16.6258 2.63159 17.0142C2.47192 17.5139 2.17421 17.689 1.48346 17.689C0.774979 17.689 0.473902 17.5016 0.33577 16.9746C0.195597 16.4399 -0.0474434 13.8547 0.00811195 13.489C0.0357552 13.3069 0.344719 12.5755 0.694614 11.8634C1.3191 10.5928 1.3323 10.5514 1.40788 9.62779C1.52554 8.1908 1.70745 7.65203 2.38482 6.73513C3.35486 5.42206 4.90827 4.92 8.39457 4.79267C10.0842 4.73089 10.3408 4.70105 10.664 4.52851C11.2225 4.23047 11.7811 3.52044 12.1696 2.61507C12.8942 0.926537 13.0154 0.725436 13.4416 0.503373C13.781 0.326621 13.9693 0.298519 14.7707 0.305201C15.2842 0.309504 15.9038 0.3636 16.1474 0.425477ZM3.8615 0.8945C4.10932 1.22 4.10622 1.58906 3.85361 1.82367C3.74392 1.92545 3.39154 2.13333 3.07044 2.28555C2.15906 2.71768 1.56887 3.43961 1.57401 4.11605C1.57649 4.4399 1.83132 5.02005 2.13354 5.38984C2.34876 5.65328 2.35594 5.68706 2.22117 5.80175C2.14037 5.87058 1.92267 6.1245 1.73731 6.36615L1.40043 6.80551L0.970085 6.20002C0.123207 5.0086 -0.0289249 3.92914 0.495167 2.82935C0.972919 1.82687 2.31563 0.800769 3.29966 0.686168C3.62333 0.648547 3.69422 0.674817 3.8615 0.8945ZM14.8632 12.769C14.8635 12.8823 14.798 13.5846 14.7175 14.3299L14.5712 15.6849L14.8392 15.9775C15.3909 16.5799 15.4214 17.0374 14.938 17.4576C14.733 17.6358 14.5726 17.689 14.2401 17.689H13.8084L13.9461 17.3484C14.1478 16.8499 14.0605 16.2942 13.7098 15.8433L13.4225 15.4739L13.793 14.4991C14.1164 13.6481 14.6916 12.563 14.8192 12.563C14.8432 12.563 14.8629 12.6557 14.8632 12.769ZM4.38036 13.7707C4.35361 13.8868 4.26305 14.3447 4.17914 14.7882L4.02657 15.5947L4.38471 15.9782C4.58167 16.1892 4.76871 16.4513 4.80052 16.561C4.87601 16.8217 4.65778 17.351 4.39702 17.5397C4.14007 17.7257 3.12564 17.7551 3.19812 17.5745C3.53322 16.7396 3.48024 16.2813 2.98423 15.7254C2.68528 15.3904 2.63531 15.275 2.63531 14.9204V14.5065L3.11953 14.3035C3.38587 14.1918 3.78946 13.9788 4.01638 13.8301C4.42307 13.5637 4.42839 13.5628 4.38036 13.7707Z" fill="#373737"/>
</svg>
