<svg width="32" height="36" viewBox="0 0 32 36" fill="none" xmlns="http://www.w3.org/2000/svg">
<path fill-rule="evenodd" clip-rule="evenodd" d="M14.9264 0.903061C9.76029 1.56695 6.05148 6.2439 6.77178 11.1866C7.53822 16.4449 12.81 20.0584 18.0886 18.9437C24.1997 17.6532 27.4058 11.4579 24.7518 6.06801C22.9666 2.44227 19.0345 0.375233 14.9264 0.903061ZM7.13551 18.4779C5.63886 19.1109 4.67209 19.797 3.51371 21.0482C2.46215 22.184 1.49384 23.9875 1.07455 25.5908C0.708938 26.9895 0.541598 30.886 0.812008 31.7054C1.4947 33.774 6.14737 35.2252 13.2172 35.5749C20.0105 35.911 26.8176 34.9746 29.527 33.3315C31.0975 32.3789 31.1667 32.2073 31.1525 29.2943C31.1438 27.5088 31.0565 26.4707 30.849 25.6875C30.0162 22.5462 28.1611 20.1218 25.612 18.8436C24.0602 18.0655 24.0004 18.0633 23.0994 18.7513C20.8204 20.4913 17.4866 21.3297 14.5846 20.8927C12.3805 20.5605 10.7098 19.8187 8.53627 18.207C8.31372 18.0419 8.04263 18.0944 7.13551 18.4779Z" fill="#373737"/>
</svg>
