<svg width="424" height="52" viewBox="0 0 424 52" fill="none" xmlns="http://www.w3.org/2000/svg">
<rect width="424" height="52" rx="26" fill="#373737"/>
<path d="M119.456 35H117.116V19.64H108.524V35H106.196V17.804H119.456V35ZM128.089 22.652C128.977 22.652 129.777 22.8 130.489 23.096C131.201 23.392 131.809 23.812 132.313 24.356C132.817 24.9 133.201 25.56 133.465 26.336C133.737 27.104 133.873 27.964 133.873 28.916C133.873 29.876 133.737 30.74 133.465 31.508C133.201 32.276 132.817 32.932 132.313 33.476C131.809 34.02 131.201 34.44 130.489 34.736C129.777 35.024 128.977 35.168 128.089 35.168C127.193 35.168 126.385 35.024 125.665 34.736C124.953 34.44 124.345 34.02 123.841 33.476C123.337 32.932 122.949 32.276 122.677 31.508C122.413 30.74 122.281 29.876 122.281 28.916C122.281 27.964 122.413 27.104 122.677 26.336C122.949 25.56 123.337 24.9 123.841 24.356C124.345 23.812 124.953 23.392 125.665 23.096C126.385 22.8 127.193 22.652 128.089 22.652ZM128.089 33.5C129.289 33.5 130.185 33.1 130.777 32.3C131.369 31.492 131.665 30.368 131.665 28.928C131.665 27.48 131.369 26.352 130.777 25.544C130.185 24.736 129.289 24.332 128.089 24.332C127.481 24.332 126.949 24.436 126.493 24.644C126.045 24.852 125.669 25.152 125.365 25.544C125.069 25.936 124.845 26.42 124.693 26.996C124.549 27.564 124.477 28.208 124.477 28.928C124.477 30.368 124.773 31.492 125.365 32.3C125.965 33.1 126.873 33.5 128.089 33.5ZM143.963 23.444C144.075 23.268 144.223 23.124 144.407 23.012C144.591 22.9 144.787 22.844 144.995 22.844H146.663L143.507 27.476C143.315 27.772 143.115 28.016 142.907 28.208C142.699 28.392 142.443 28.536 142.139 28.64C142.523 28.744 142.847 28.908 143.111 29.132C143.375 29.348 143.611 29.628 143.819 29.972L147.011 35H145.523C145.139 35 144.843 34.936 144.635 34.808C144.427 34.68 144.247 34.496 144.095 34.256L141.731 30.476C141.355 29.852 140.791 29.54 140.039 29.54H138.731V35.012H136.583V22.844H138.731V28.1H139.883C140.523 28.1 141.023 27.828 141.383 27.284L143.963 23.444ZM155.593 29.528C154.609 29.56 153.769 29.64 153.073 29.768C152.385 29.888 151.821 30.048 151.381 30.248C150.949 30.448 150.633 30.684 150.433 30.956C150.241 31.228 150.145 31.532 150.145 31.868C150.145 32.188 150.197 32.464 150.301 32.696C150.405 32.928 150.545 33.12 150.721 33.272C150.905 33.416 151.117 33.524 151.357 33.596C151.605 33.66 151.869 33.692 152.149 33.692C152.525 33.692 152.869 33.656 153.181 33.584C153.493 33.504 153.785 33.392 154.057 33.248C154.337 33.104 154.601 32.932 154.849 32.732C155.105 32.532 155.353 32.304 155.593 32.048V29.528ZM148.693 24.56C149.365 23.912 150.089 23.428 150.865 23.108C151.641 22.788 152.501 22.628 153.445 22.628C154.125 22.628 154.729 22.74 155.257 22.964C155.785 23.188 156.229 23.5 156.589 23.9C156.949 24.3 157.221 24.784 157.405 25.352C157.589 25.92 157.681 26.544 157.681 27.224V35H156.733C156.525 35 156.365 34.968 156.253 34.904C156.141 34.832 156.053 34.696 155.989 34.496L155.749 33.344C155.429 33.64 155.117 33.904 154.812 34.136C154.509 34.36 154.189 34.552 153.853 34.712C153.517 34.864 153.157 34.98 152.773 35.06C152.397 35.148 151.977 35.192 151.513 35.192C151.041 35.192 150.597 35.128 150.181 35C149.765 34.864 149.401 34.664 149.089 34.4C148.785 34.136 148.541 33.804 148.357 33.404C148.181 32.996 148.093 32.516 148.093 31.964C148.093 31.484 148.225 31.024 148.489 30.584C148.753 30.136 149.181 29.74 149.773 29.396C150.365 29.052 151.137 28.772 152.089 28.556C153.041 28.332 154.209 28.204 155.593 28.172V27.224C155.593 26.28 155.389 25.568 154.981 25.088C154.573 24.6 153.977 24.356 153.193 24.356C152.665 24.356 152.221 24.424 151.861 24.56C151.509 24.688 151.201 24.836 150.937 25.004C150.681 25.164 150.457 25.312 150.265 25.448C150.081 25.576 149.897 25.64 149.713 25.64C149.569 25.64 149.445 25.604 149.341 25.532C149.237 25.452 149.149 25.356 149.076 25.244L148.693 24.56ZM160.166 24.092C160.622 23.66 161.174 23.312 161.822 23.048C162.478 22.784 163.266 22.652 164.186 22.652C164.922 22.652 165.57 22.744 166.13 22.928C166.69 23.104 167.158 23.34 167.534 23.636C167.918 23.932 168.206 24.272 168.398 24.656C168.598 25.032 168.698 25.424 168.698 25.832C168.698 26.072 168.658 26.324 168.578 26.588C168.506 26.852 168.382 27.104 168.206 27.344C168.03 27.584 167.802 27.808 167.522 28.016C167.242 28.224 166.894 28.392 166.478 28.52C167.254 28.752 167.862 29.124 168.302 29.636C168.75 30.148 168.974 30.776 168.974 31.52C168.974 32.08 168.846 32.588 168.59 33.044C168.334 33.492 167.99 33.876 167.558 34.196C167.126 34.508 166.622 34.748 166.046 34.916C165.478 35.084 164.882 35.168 164.258 35.168C163.866 35.168 163.466 35.132 163.058 35.06C162.658 34.988 162.266 34.876 161.882 34.724C161.498 34.564 161.134 34.368 160.79 34.136C160.454 33.904 160.154 33.624 159.89 33.296L160.49 32.516C160.586 32.38 160.722 32.312 160.898 32.312C161.042 32.312 161.194 32.376 161.354 32.504C161.522 32.624 161.726 32.76 161.966 32.912C162.206 33.064 162.498 33.204 162.842 33.332C163.194 33.452 163.622 33.512 164.126 33.512C164.566 33.512 164.958 33.46 165.302 33.356C165.654 33.244 165.95 33.092 166.19 32.9C166.43 32.708 166.614 32.48 166.742 32.216C166.87 31.952 166.934 31.664 166.934 31.352C166.934 30.752 166.682 30.268 166.178 29.9C165.682 29.532 164.926 29.348 163.91 29.348H162.53V27.932H163.91C164.35 27.932 164.746 27.888 165.098 27.8C165.45 27.704 165.75 27.576 165.998 27.416C166.246 27.256 166.434 27.064 166.562 26.84C166.69 26.608 166.754 26.36 166.754 26.096C166.754 25.856 166.698 25.628 166.586 25.412C166.482 25.196 166.318 25.008 166.094 24.848C165.878 24.688 165.606 24.56 165.278 24.464C164.95 24.368 164.566 24.32 164.126 24.32C163.646 24.32 163.238 24.368 162.902 24.464C162.574 24.56 162.294 24.664 162.062 24.776C161.838 24.888 161.654 24.992 161.51 25.088C161.366 25.184 161.242 25.232 161.138 25.232C161.034 25.232 160.946 25.212 160.874 25.172C160.81 25.132 160.738 25.048 160.658 24.92L160.166 24.092ZM178.303 29.528C177.319 29.56 176.479 29.64 175.783 29.768C175.095 29.888 174.531 30.048 174.091 30.248C173.659 30.448 173.343 30.684 173.143 30.956C172.951 31.228 172.855 31.532 172.855 31.868C172.855 32.188 172.907 32.464 173.011 32.696C173.115 32.928 173.255 33.12 173.431 33.272C173.615 33.416 173.827 33.524 174.067 33.596C174.315 33.66 174.579 33.692 174.859 33.692C175.235 33.692 175.579 33.656 175.891 33.584C176.203 33.504 176.495 33.392 176.767 33.248C177.047 33.104 177.311 32.932 177.559 32.732C177.815 32.532 178.063 32.304 178.303 32.048V29.528ZM171.403 24.56C172.075 23.912 172.799 23.428 173.575 23.108C174.351 22.788 175.211 22.628 176.155 22.628C176.835 22.628 177.439 22.74 177.967 22.964C178.495 23.188 178.939 23.5 179.299 23.9C179.659 24.3 179.931 24.784 180.115 25.352C180.299 25.92 180.391 26.544 180.391 27.224V35H179.443C179.235 35 179.075 34.968 178.963 34.904C178.851 34.832 178.763 34.696 178.699 34.496L178.459 33.344C178.139 33.64 177.827 33.904 177.523 34.136C177.219 34.36 176.899 34.552 176.563 34.712C176.227 34.864 175.867 34.98 175.483 35.06C175.107 35.148 174.687 35.192 174.223 35.192C173.751 35.192 173.307 35.128 172.891 35C172.475 34.864 172.111 34.664 171.799 34.4C171.495 34.136 171.251 33.804 171.067 33.404C170.891 32.996 170.803 32.516 170.803 31.964C170.803 31.484 170.935 31.024 171.199 30.584C171.463 30.136 171.891 29.74 172.483 29.396C173.075 29.052 173.847 28.772 174.799 28.556C175.751 28.332 176.919 28.204 178.303 28.172V27.224C178.303 26.28 178.099 25.568 177.691 25.088C177.283 24.6 176.687 24.356 175.903 24.356C175.375 24.356 174.931 24.424 174.571 24.56C174.219 24.688 173.911 24.836 173.647 25.004C173.391 25.164 173.167 25.312 172.975 25.448C172.791 25.576 172.607 25.64 172.423 25.64C172.279 25.64 172.155 25.604 172.051 25.532C171.947 25.452 171.859 25.356 171.787 25.244L171.403 24.56ZM193.444 24.476H188.776V35H186.64V24.476H181.972V22.844H193.444V24.476ZM200.149 33.44C200.581 33.44 200.953 33.388 201.265 33.284C201.585 33.172 201.849 33.02 202.057 32.828C202.265 32.628 202.421 32.396 202.525 32.132C202.629 31.868 202.681 31.58 202.681 31.268C202.681 30.98 202.637 30.712 202.549 30.464C202.461 30.208 202.313 29.984 202.105 29.792C201.905 29.6 201.641 29.448 201.313 29.336C200.985 29.224 200.585 29.168 200.113 29.168H197.533V33.44H200.149ZM200.113 27.608C200.953 27.608 201.657 27.708 202.225 27.908C202.801 28.108 203.261 28.376 203.605 28.712C203.957 29.048 204.209 29.436 204.361 29.876C204.513 30.316 204.589 30.772 204.589 31.244C204.589 31.788 204.493 32.292 204.301 32.756C204.109 33.212 203.825 33.608 203.449 33.944C203.073 34.272 202.609 34.532 202.057 34.724C201.505 34.908 200.869 35 200.149 35H195.481V22.844H197.533V27.608H200.113ZM223.234 35H221.086V24.476H215.254V35H213.106V22.844H223.234V35ZM237.057 22.844V35H234.922V26.744C234.922 26.584 234.93 26.412 234.946 26.228C234.962 26.044 234.982 25.86 235.006 25.676C234.934 25.836 234.862 25.984 234.79 26.12C234.718 26.256 234.642 26.38 234.562 26.492L228.694 34.472C228.606 34.6 228.494 34.724 228.358 34.844C228.23 34.956 228.086 35.012 227.926 35.012H226.63V22.856H228.778V31.112C228.778 31.264 228.77 31.432 228.754 31.616C228.738 31.792 228.718 31.972 228.694 32.156C228.766 32.004 228.838 31.864 228.91 31.736C228.982 31.6 229.054 31.476 229.126 31.364L234.994 23.384C235.082 23.256 235.194 23.136 235.33 23.024C235.466 22.904 235.614 22.844 235.774 22.844H237.057ZM250.538 24.476H245.87V35H243.734V24.476H239.066V22.844H250.538V24.476ZM257.207 22.652C258.095 22.652 258.895 22.8 259.607 23.096C260.319 23.392 260.927 23.812 261.431 24.356C261.935 24.9 262.319 25.56 262.583 26.336C262.855 27.104 262.991 27.964 262.991 28.916C262.991 29.876 262.855 30.74 262.583 31.508C262.319 32.276 261.935 32.932 261.431 33.476C260.927 34.02 260.319 34.44 259.607 34.736C258.895 35.024 258.095 35.168 257.207 35.168C256.311 35.168 255.503 35.024 254.783 34.736C254.071 34.44 253.463 34.02 252.959 33.476C252.455 32.932 252.067 32.276 251.795 31.508C251.531 30.74 251.399 29.876 251.399 28.916C251.399 27.964 251.531 27.104 251.795 26.336C252.067 25.56 252.455 24.9 252.959 24.356C253.463 23.812 254.071 23.392 254.783 23.096C255.503 22.8 256.311 22.652 257.207 22.652ZM257.207 33.5C258.407 33.5 259.303 33.1 259.895 32.3C260.487 31.492 260.783 30.368 260.783 28.928C260.783 27.48 260.487 26.352 259.895 25.544C259.303 24.736 258.407 24.332 257.207 24.332C256.599 24.332 256.067 24.436 255.611 24.644C255.163 24.852 254.787 25.152 254.483 25.544C254.187 25.936 253.963 26.42 253.811 26.996C253.667 27.564 253.595 28.208 253.595 28.928C253.595 30.368 253.891 31.492 254.483 32.3C255.083 33.1 255.991 33.5 257.207 33.5ZM279.248 22.808V35H277.316V26.924C277.316 26.7 277.328 26.452 277.352 26.18C277.384 25.9 277.424 25.64 277.472 25.4L273.248 32.804C273.184 32.924 273.1 33.02 272.996 33.092C272.892 33.164 272.772 33.2 272.636 33.2H272.396C272.26 33.2 272.136 33.164 272.024 33.092C271.92 33.02 271.836 32.924 271.772 32.804L267.476 25.376C267.516 25.616 267.552 25.88 267.584 26.168C267.616 26.448 267.632 26.7 267.632 26.924V35H265.7V22.808H267.416C267.568 22.808 267.716 22.844 267.86 22.916C268.004 22.98 268.128 23.104 268.232 23.288L272.024 29.624C272.208 29.992 272.372 30.38 272.516 30.788C272.652 30.364 272.812 29.976 272.996 29.624L276.716 23.288C276.82 23.096 276.944 22.968 277.088 22.904C277.232 22.84 277.38 22.808 277.532 22.808H279.248ZM294.97 33.38V38.528C294.97 38.736 294.91 38.896 294.79 39.008C294.678 39.128 294.53 39.188 294.346 39.188H293.038V35H282.622V22.844H284.77V33.38H290.602V22.844H292.75V33.38H294.97ZM305.055 27.596C305.055 27.1 304.983 26.648 304.839 26.24C304.703 25.824 304.499 25.468 304.227 25.172C303.963 24.868 303.639 24.636 303.255 24.476C302.871 24.308 302.435 24.224 301.947 24.224C300.923 24.224 300.111 24.524 299.511 25.124C298.919 25.716 298.551 26.54 298.407 27.596H305.055ZM306.783 33.296C306.519 33.616 306.203 33.896 305.835 34.136C305.467 34.368 305.071 34.56 304.647 34.712C304.231 34.864 303.799 34.976 303.351 35.048C302.903 35.128 302.459 35.168 302.019 35.168C301.179 35.168 300.403 35.028 299.691 34.748C298.987 34.46 298.375 34.044 297.855 33.5C297.343 32.948 296.943 32.268 296.655 31.46C296.367 30.652 296.223 29.724 296.223 28.676C296.223 27.828 296.351 27.036 296.607 26.3C296.871 25.564 297.247 24.928 297.735 24.392C298.223 23.848 298.819 23.424 299.523 23.12C300.227 22.808 301.019 22.652 301.899 22.652C302.627 22.652 303.299 22.776 303.915 23.024C304.539 23.264 305.075 23.616 305.523 24.08C305.979 24.536 306.335 25.104 306.591 25.784C306.847 26.456 306.975 27.224 306.975 28.088C306.975 28.424 306.939 28.648 306.867 28.76C306.795 28.872 306.659 28.928 306.459 28.928H298.335C298.359 29.696 298.463 30.364 298.647 30.932C298.839 31.5 299.103 31.976 299.439 32.36C299.775 32.736 300.175 33.02 300.639 33.212C301.103 33.396 301.623 33.488 302.199 33.488C302.735 33.488 303.195 33.428 303.579 33.308C303.971 33.18 304.307 33.044 304.587 32.9C304.867 32.756 305.099 32.624 305.283 32.504C305.475 32.376 305.639 32.312 305.775 32.312C305.951 32.312 306.087 32.38 306.183 32.516L306.783 33.296ZM314.266 33.5C315.066 33.5 315.698 33.316 316.162 32.948C316.626 32.572 316.858 32.06 316.858 31.412C316.858 31.124 316.814 30.864 316.726 30.632C316.638 30.392 316.494 30.184 316.294 30.008C316.094 29.832 315.826 29.696 315.49 29.6C315.162 29.504 314.758 29.456 314.278 29.456H311.65V33.5H314.266ZM311.65 24.284V28.1H313.99C314.342 28.1 314.666 28.052 314.962 27.956C315.266 27.852 315.526 27.712 315.742 27.536C315.958 27.352 316.126 27.136 316.246 26.888C316.366 26.632 316.426 26.352 316.426 26.048C316.426 25.824 316.386 25.608 316.306 25.4C316.226 25.184 316.09 24.996 315.898 24.836C315.706 24.668 315.454 24.536 315.142 24.44C314.83 24.336 314.446 24.284 313.99 24.284H311.65ZM314.05 22.844C314.802 22.844 315.446 22.92 315.982 23.072C316.518 23.224 316.958 23.432 317.302 23.696C317.646 23.952 317.898 24.256 318.058 24.608C318.218 24.96 318.298 25.336 318.298 25.736C318.298 26 318.262 26.276 318.19 26.564C318.118 26.852 317.99 27.128 317.806 27.392C317.63 27.656 317.386 27.896 317.074 28.112C316.77 28.32 316.386 28.484 315.922 28.604C316.85 28.764 317.566 29.088 318.07 29.576C318.574 30.056 318.826 30.692 318.826 31.484C318.826 32.076 318.706 32.592 318.466 33.032C318.234 33.464 317.91 33.828 317.494 34.124C317.086 34.42 316.606 34.64 316.054 34.784C315.502 34.928 314.91 35 314.278 35H309.598V22.844H314.05Z" fill="white"/>
</svg>
