<svg width="424" height="52" viewBox="0 0 424 52" fill="none" xmlns="http://www.w3.org/2000/svg">
<rect width="424" height="52" rx="26" fill="#373737"/>
<path d="M137.456 35H135.116V19.64H126.524V35H124.196V17.804H137.456V35ZM146.089 22.652C146.977 22.652 147.777 22.8 148.489 23.096C149.201 23.392 149.809 23.812 150.313 24.356C150.817 24.9 151.201 25.56 151.465 26.336C151.737 27.104 151.873 27.964 151.873 28.916C151.873 29.876 151.737 30.74 151.465 31.508C151.201 32.276 150.817 32.932 150.313 33.476C149.809 34.02 149.201 34.44 148.489 34.736C147.777 35.024 146.977 35.168 146.089 35.168C145.193 35.168 144.385 35.024 143.665 34.736C142.953 34.44 142.345 34.02 141.841 33.476C141.337 32.932 140.949 32.276 140.677 31.508C140.413 30.74 140.281 29.876 140.281 28.916C140.281 27.964 140.413 27.104 140.677 26.336C140.949 25.56 141.337 24.9 141.841 24.356C142.345 23.812 142.953 23.392 143.665 23.096C144.385 22.8 145.193 22.652 146.089 22.652ZM146.089 33.5C147.289 33.5 148.185 33.1 148.777 32.3C149.369 31.492 149.665 30.368 149.665 28.928C149.665 27.48 149.369 26.352 148.777 25.544C148.185 24.736 147.289 24.332 146.089 24.332C145.481 24.332 144.949 24.436 144.493 24.644C144.045 24.852 143.669 25.152 143.365 25.544C143.069 25.936 142.845 26.42 142.693 26.996C142.549 27.564 142.477 28.208 142.477 28.928C142.477 30.368 142.773 31.492 143.365 32.3C143.965 33.1 144.873 33.5 146.089 33.5ZM161.963 23.444C162.075 23.268 162.223 23.124 162.407 23.012C162.591 22.9 162.787 22.844 162.995 22.844H164.663L161.507 27.476C161.315 27.772 161.115 28.016 160.907 28.208C160.699 28.392 160.443 28.536 160.139 28.64C160.523 28.744 160.847 28.908 161.111 29.132C161.375 29.348 161.611 29.628 161.819 29.972L165.011 35H163.523C163.139 35 162.843 34.936 162.635 34.808C162.427 34.68 162.247 34.496 162.095 34.256L159.731 30.476C159.355 29.852 158.791 29.54 158.039 29.54H156.731V35.012H154.583V22.844H156.731V28.1H157.883C158.523 28.1 159.023 27.828 159.383 27.284L161.963 23.444ZM173.593 29.528C172.609 29.56 171.769 29.64 171.073 29.768C170.385 29.888 169.821 30.048 169.381 30.248C168.949 30.448 168.633 30.684 168.433 30.956C168.241 31.228 168.145 31.532 168.145 31.868C168.145 32.188 168.197 32.464 168.301 32.696C168.405 32.928 168.545 33.12 168.721 33.272C168.905 33.416 169.117 33.524 169.357 33.596C169.605 33.66 169.869 33.692 170.149 33.692C170.525 33.692 170.869 33.656 171.181 33.584C171.493 33.504 171.785 33.392 172.057 33.248C172.337 33.104 172.601 32.932 172.849 32.732C173.105 32.532 173.353 32.304 173.593 32.048V29.528ZM166.693 24.56C167.365 23.912 168.089 23.428 168.865 23.108C169.641 22.788 170.501 22.628 171.445 22.628C172.125 22.628 172.729 22.74 173.257 22.964C173.785 23.188 174.229 23.5 174.589 23.9C174.949 24.3 175.221 24.784 175.405 25.352C175.589 25.92 175.681 26.544 175.681 27.224V35H174.733C174.525 35 174.365 34.968 174.253 34.904C174.141 34.832 174.053 34.696 173.989 34.496L173.749 33.344C173.429 33.64 173.117 33.904 172.812 34.136C172.509 34.36 172.189 34.552 171.853 34.712C171.517 34.864 171.157 34.98 170.773 35.06C170.397 35.148 169.977 35.192 169.513 35.192C169.041 35.192 168.597 35.128 168.181 35C167.765 34.864 167.401 34.664 167.089 34.4C166.785 34.136 166.541 33.804 166.357 33.404C166.181 32.996 166.093 32.516 166.093 31.964C166.093 31.484 166.225 31.024 166.489 30.584C166.753 30.136 167.181 29.74 167.773 29.396C168.365 29.052 169.137 28.772 170.089 28.556C171.041 28.332 172.209 28.204 173.593 28.172V27.224C173.593 26.28 173.389 25.568 172.981 25.088C172.573 24.6 171.977 24.356 171.193 24.356C170.665 24.356 170.221 24.424 169.861 24.56C169.509 24.688 169.201 24.836 168.937 25.004C168.681 25.164 168.457 25.312 168.265 25.448C168.081 25.576 167.897 25.64 167.713 25.64C167.569 25.64 167.445 25.604 167.341 25.532C167.237 25.452 167.149 25.356 167.076 25.244L166.693 24.56ZM178.166 24.092C178.622 23.66 179.174 23.312 179.822 23.048C180.478 22.784 181.266 22.652 182.186 22.652C182.922 22.652 183.57 22.744 184.13 22.928C184.69 23.104 185.158 23.34 185.534 23.636C185.918 23.932 186.206 24.272 186.398 24.656C186.598 25.032 186.698 25.424 186.698 25.832C186.698 26.072 186.658 26.324 186.578 26.588C186.506 26.852 186.382 27.104 186.206 27.344C186.03 27.584 185.802 27.808 185.522 28.016C185.242 28.224 184.894 28.392 184.478 28.52C185.254 28.752 185.862 29.124 186.302 29.636C186.75 30.148 186.974 30.776 186.974 31.52C186.974 32.08 186.846 32.588 186.59 33.044C186.334 33.492 185.99 33.876 185.558 34.196C185.126 34.508 184.622 34.748 184.046 34.916C183.478 35.084 182.882 35.168 182.258 35.168C181.866 35.168 181.466 35.132 181.058 35.06C180.658 34.988 180.266 34.876 179.882 34.724C179.498 34.564 179.134 34.368 178.79 34.136C178.454 33.904 178.154 33.624 177.89 33.296L178.49 32.516C178.586 32.38 178.722 32.312 178.898 32.312C179.042 32.312 179.194 32.376 179.354 32.504C179.522 32.624 179.726 32.76 179.966 32.912C180.206 33.064 180.498 33.204 180.842 33.332C181.194 33.452 181.622 33.512 182.126 33.512C182.566 33.512 182.958 33.46 183.302 33.356C183.654 33.244 183.95 33.092 184.19 32.9C184.43 32.708 184.614 32.48 184.742 32.216C184.87 31.952 184.934 31.664 184.934 31.352C184.934 30.752 184.682 30.268 184.178 29.9C183.682 29.532 182.926 29.348 181.91 29.348H180.53V27.932H181.91C182.35 27.932 182.746 27.888 183.098 27.8C183.45 27.704 183.75 27.576 183.998 27.416C184.246 27.256 184.434 27.064 184.562 26.84C184.69 26.608 184.754 26.36 184.754 26.096C184.754 25.856 184.698 25.628 184.586 25.412C184.482 25.196 184.318 25.008 184.094 24.848C183.878 24.688 183.606 24.56 183.278 24.464C182.95 24.368 182.566 24.32 182.126 24.32C181.646 24.32 181.238 24.368 180.902 24.464C180.574 24.56 180.294 24.664 180.062 24.776C179.838 24.888 179.654 24.992 179.51 25.088C179.366 25.184 179.242 25.232 179.138 25.232C179.034 25.232 178.946 25.212 178.874 25.172C178.81 25.132 178.738 25.048 178.658 24.92L178.166 24.092ZM196.303 29.528C195.319 29.56 194.479 29.64 193.783 29.768C193.095 29.888 192.531 30.048 192.091 30.248C191.659 30.448 191.343 30.684 191.143 30.956C190.951 31.228 190.855 31.532 190.855 31.868C190.855 32.188 190.907 32.464 191.011 32.696C191.115 32.928 191.255 33.12 191.431 33.272C191.615 33.416 191.827 33.524 192.067 33.596C192.315 33.66 192.579 33.692 192.859 33.692C193.235 33.692 193.579 33.656 193.891 33.584C194.203 33.504 194.495 33.392 194.767 33.248C195.047 33.104 195.311 32.932 195.559 32.732C195.815 32.532 196.063 32.304 196.303 32.048V29.528ZM189.403 24.56C190.075 23.912 190.799 23.428 191.575 23.108C192.351 22.788 193.211 22.628 194.155 22.628C194.835 22.628 195.439 22.74 195.967 22.964C196.495 23.188 196.939 23.5 197.299 23.9C197.659 24.3 197.931 24.784 198.115 25.352C198.299 25.92 198.391 26.544 198.391 27.224V35H197.443C197.235 35 197.075 34.968 196.963 34.904C196.851 34.832 196.763 34.696 196.699 34.496L196.459 33.344C196.139 33.64 195.827 33.904 195.523 34.136C195.219 34.36 194.899 34.552 194.563 34.712C194.227 34.864 193.867 34.98 193.483 35.06C193.107 35.148 192.687 35.192 192.223 35.192C191.751 35.192 191.307 35.128 190.891 35C190.475 34.864 190.111 34.664 189.799 34.4C189.495 34.136 189.251 33.804 189.067 33.404C188.891 32.996 188.803 32.516 188.803 31.964C188.803 31.484 188.935 31.024 189.199 30.584C189.463 30.136 189.891 29.74 190.483 29.396C191.075 29.052 191.847 28.772 192.799 28.556C193.751 28.332 194.919 28.204 196.303 28.172V27.224C196.303 26.28 196.099 25.568 195.691 25.088C195.283 24.6 194.687 24.356 193.903 24.356C193.375 24.356 192.931 24.424 192.571 24.56C192.219 24.688 191.911 24.836 191.647 25.004C191.391 25.164 191.167 25.312 190.975 25.448C190.791 25.576 190.607 25.64 190.423 25.64C190.279 25.64 190.155 25.604 190.051 25.532C189.947 25.452 189.859 25.356 189.787 25.244L189.403 24.56ZM211.444 24.476H206.776V35H204.64V24.476H199.972V22.844H211.444V24.476ZM218.149 33.44C218.581 33.44 218.953 33.388 219.265 33.284C219.585 33.172 219.849 33.02 220.057 32.828C220.265 32.628 220.421 32.396 220.525 32.132C220.629 31.868 220.681 31.58 220.681 31.268C220.681 30.98 220.637 30.712 220.549 30.464C220.461 30.208 220.313 29.984 220.105 29.792C219.905 29.6 219.641 29.448 219.313 29.336C218.985 29.224 218.585 29.168 218.113 29.168H215.533V33.44H218.149ZM218.113 27.608C218.953 27.608 219.657 27.708 220.225 27.908C220.801 28.108 221.261 28.376 221.605 28.712C221.957 29.048 222.209 29.436 222.361 29.876C222.513 30.316 222.589 30.772 222.589 31.244C222.589 31.788 222.493 32.292 222.301 32.756C222.109 33.212 221.825 33.608 221.449 33.944C221.073 34.272 220.609 34.532 220.057 34.724C219.505 34.908 218.869 35 218.149 35H213.481V22.844H215.533V27.608H218.113ZM239.566 25.004C239.502 25.092 239.438 25.16 239.374 25.208C239.31 25.256 239.222 25.28 239.11 25.28C238.99 25.28 238.858 25.232 238.714 25.136C238.57 25.032 238.39 24.92 238.174 24.8C237.966 24.68 237.706 24.572 237.394 24.476C237.09 24.372 236.714 24.32 236.266 24.32C235.666 24.32 235.138 24.428 234.682 24.644C234.226 24.852 233.842 25.156 233.53 25.556C233.226 25.956 232.994 26.44 232.834 27.008C232.682 27.576 232.606 28.212 232.606 28.916C232.606 29.652 232.69 30.308 232.858 30.884C233.026 31.452 233.262 31.932 233.566 32.324C233.878 32.708 234.25 33.004 234.682 33.212C235.122 33.412 235.614 33.512 236.158 33.512C236.678 33.512 237.106 33.452 237.442 33.332C237.778 33.204 238.054 33.064 238.27 32.912C238.494 32.76 238.678 32.624 238.822 32.504C238.974 32.376 239.122 32.312 239.266 32.312C239.442 32.312 239.578 32.38 239.674 32.516L240.274 33.296C240.01 33.624 239.71 33.904 239.374 34.136C239.038 34.368 238.674 34.564 238.282 34.724C237.898 34.876 237.494 34.988 237.07 35.06C236.646 35.132 236.214 35.168 235.774 35.168C235.014 35.168 234.306 35.028 233.65 34.748C233.002 34.468 232.438 34.064 231.958 33.536C231.478 33 231.102 32.344 230.83 31.568C230.558 30.792 230.422 29.908 230.422 28.916C230.422 28.012 230.546 27.176 230.794 26.408C231.05 25.64 231.418 24.98 231.898 24.428C232.386 23.868 232.982 23.432 233.686 23.12C234.398 22.808 235.214 22.652 236.134 22.652C236.99 22.652 237.742 22.792 238.39 23.072C239.046 23.344 239.626 23.732 240.13 24.236L239.566 25.004ZM252.671 24.476H248.003V35H245.867V24.476H241.199V22.844H252.671V24.476ZM261.178 29.528C260.194 29.56 259.354 29.64 258.658 29.768C257.97 29.888 257.406 30.048 256.966 30.248C256.534 30.448 256.218 30.684 256.018 30.956C255.826 31.228 255.73 31.532 255.73 31.868C255.73 32.188 255.782 32.464 255.886 32.696C255.99 32.928 256.13 33.12 256.306 33.272C256.49 33.416 256.702 33.524 256.942 33.596C257.19 33.66 257.454 33.692 257.734 33.692C258.11 33.692 258.454 33.656 258.766 33.584C259.078 33.504 259.37 33.392 259.642 33.248C259.922 33.104 260.186 32.932 260.434 32.732C260.69 32.532 260.938 32.304 261.178 32.048V29.528ZM254.278 24.56C254.95 23.912 255.674 23.428 256.45 23.108C257.226 22.788 258.086 22.628 259.03 22.628C259.71 22.628 260.314 22.74 260.842 22.964C261.37 23.188 261.814 23.5 262.174 23.9C262.534 24.3 262.806 24.784 262.99 25.352C263.174 25.92 263.266 26.544 263.266 27.224V35H262.318C262.11 35 261.95 34.968 261.838 34.904C261.726 34.832 261.638 34.696 261.574 34.496L261.334 33.344C261.014 33.64 260.702 33.904 260.398 34.136C260.094 34.36 259.774 34.552 259.438 34.712C259.102 34.864 258.742 34.98 258.358 35.06C257.982 35.148 257.562 35.192 257.098 35.192C256.626 35.192 256.182 35.128 255.766 35C255.35 34.864 254.986 34.664 254.674 34.4C254.37 34.136 254.126 33.804 253.942 33.404C253.766 32.996 253.678 32.516 253.678 31.964C253.678 31.484 253.81 31.024 254.074 30.584C254.338 30.136 254.766 29.74 255.358 29.396C255.95 29.052 256.722 28.772 257.674 28.556C258.626 28.332 259.794 28.204 261.178 28.172V27.224C261.178 26.28 260.974 25.568 260.566 25.088C260.158 24.6 259.562 24.356 258.778 24.356C258.25 24.356 257.806 24.424 257.446 24.56C257.094 24.688 256.786 24.836 256.522 25.004C256.266 25.164 256.042 25.312 255.85 25.448C255.666 25.576 255.482 25.64 255.298 25.64C255.154 25.64 255.03 25.604 254.926 25.532C254.822 25.452 254.734 25.356 254.662 25.244L254.278 24.56ZM276.319 24.476H271.651V35H269.515V24.476H264.847V22.844H276.319V24.476ZM283.024 33.44C283.456 33.44 283.828 33.388 284.14 33.284C284.46 33.172 284.724 33.02 284.932 32.828C285.14 32.628 285.296 32.396 285.4 32.132C285.504 31.868 285.556 31.58 285.556 31.268C285.556 30.98 285.512 30.712 285.424 30.464C285.336 30.208 285.188 29.984 284.98 29.792C284.78 29.6 284.516 29.448 284.188 29.336C283.86 29.224 283.46 29.168 282.988 29.168H280.408V33.44H283.024ZM282.988 27.608C283.828 27.608 284.532 27.708 285.1 27.908C285.676 28.108 286.136 28.376 286.48 28.712C286.832 29.048 287.084 29.436 287.236 29.876C287.388 30.316 287.464 30.772 287.464 31.244C287.464 31.788 287.368 32.292 287.176 32.756C286.984 33.212 286.7 33.608 286.324 33.944C285.948 34.272 285.484 34.532 284.932 34.724C284.38 34.908 283.744 35 283.024 35H278.356V22.844H280.408V27.608H282.988ZM300.268 22.844V35H298.132V26.744C298.132 26.584 298.14 26.412 298.156 26.228C298.172 26.044 298.192 25.86 298.216 25.676C298.144 25.836 298.072 25.984 298 26.12C297.928 26.256 297.852 26.38 297.772 26.492L291.904 34.472C291.816 34.6 291.704 34.724 291.568 34.844C291.44 34.956 291.296 35.012 291.136 35.012H289.84V22.856H291.988V31.112C291.988 31.264 291.98 31.432 291.964 31.616C291.948 31.792 291.928 31.972 291.904 32.156C291.976 32.004 292.048 31.864 292.12 31.736C292.192 31.6 292.264 31.476 292.336 31.364L298.204 23.384C298.292 23.256 298.404 23.136 298.54 23.024C298.676 22.904 298.824 22.844 298.984 22.844H300.268Z" fill="white"/>
</svg>
