<svg width="424" height="52" viewBox="0 0 424 52" fill="none" xmlns="http://www.w3.org/2000/svg">
<rect width="424" height="52" rx="26" fill="#373737"/>
<path d="M119.456 35H117.116V19.64H108.524V35H106.196V17.804H119.456V35ZM125.301 32.072C125.693 32.6 126.121 32.972 126.585 33.188C127.049 33.404 127.569 33.512 128.145 33.512C129.281 33.512 130.153 33.108 130.761 32.3C131.369 31.492 131.673 30.34 131.673 28.844C131.673 28.052 131.601 27.372 131.457 26.804C131.321 26.236 131.121 25.772 130.857 25.412C130.593 25.044 130.269 24.776 129.885 24.608C129.501 24.44 129.065 24.356 128.577 24.356C127.881 24.356 127.269 24.516 126.741 24.836C126.221 25.156 125.741 25.608 125.301 26.192V32.072ZM125.193 24.728C125.705 24.096 126.297 23.588 126.969 23.204C127.641 22.82 128.409 22.628 129.273 22.628C129.977 22.628 130.613 22.764 131.181 23.036C131.749 23.3 132.233 23.696 132.633 24.224C133.033 24.744 133.341 25.392 133.557 26.168C133.773 26.944 133.881 27.836 133.881 28.844C133.881 29.74 133.761 30.576 133.521 31.352C133.281 32.12 132.933 32.788 132.477 33.356C132.029 33.916 131.477 34.36 130.821 34.688C130.173 35.008 129.441 35.168 128.625 35.168C127.881 35.168 127.241 35.044 126.705 34.796C126.177 34.54 125.709 34.188 125.301 33.74V39.116H123.153V22.844H124.437C124.741 22.844 124.929 22.992 125.001 23.288L125.193 24.728ZM141.707 22.652C142.595 22.652 143.395 22.8 144.107 23.096C144.819 23.392 145.427 23.812 145.931 24.356C146.435 24.9 146.819 25.56 147.083 26.336C147.355 27.104 147.491 27.964 147.491 28.916C147.491 29.876 147.355 30.74 147.083 31.508C146.819 32.276 146.435 32.932 145.931 33.476C145.427 34.02 144.819 34.44 144.107 34.736C143.395 35.024 142.595 35.168 141.707 35.168C140.811 35.168 140.003 35.024 139.283 34.736C138.571 34.44 137.963 34.02 137.459 33.476C136.955 32.932 136.567 32.276 136.295 31.508C136.031 30.74 135.899 29.876 135.899 28.916C135.899 27.964 136.031 27.104 136.295 26.336C136.567 25.56 136.955 24.9 137.459 24.356C137.963 23.812 138.571 23.392 139.283 23.096C140.003 22.8 140.811 22.652 141.707 22.652ZM141.707 33.5C142.907 33.5 143.803 33.1 144.395 32.3C144.987 31.492 145.283 30.368 145.283 28.928C145.283 27.48 144.987 26.352 144.395 25.544C143.803 24.736 142.907 24.332 141.707 24.332C141.099 24.332 140.567 24.436 140.111 24.644C139.663 24.852 139.287 25.152 138.983 25.544C138.687 25.936 138.463 26.42 138.311 26.996C138.167 27.564 138.095 28.208 138.095 28.928C138.095 30.368 138.391 31.492 138.983 32.3C139.583 33.1 140.491 33.5 141.707 33.5ZM160.628 22.844V35H158.492V26.744C158.492 26.584 158.5 26.412 158.516 26.228C158.532 26.044 158.552 25.86 158.576 25.676C158.504 25.836 158.432 25.984 158.36 26.12C158.288 26.256 158.212 26.38 158.132 26.492L152.264 34.472C152.176 34.6 152.064 34.724 151.928 34.844C151.8 34.956 151.656 35.012 151.496 35.012H150.2V22.856H152.348V31.112C152.348 31.264 152.34 31.432 152.324 31.616C152.308 31.792 152.288 31.972 152.264 32.156C152.336 32.004 152.408 31.864 152.48 31.736C152.552 31.6 152.624 31.476 152.696 31.364L158.564 23.384C158.652 23.256 158.764 23.136 158.9 23.024C159.036 22.904 159.184 22.844 159.344 22.844H160.628ZM155.552 19.904C155.88 19.904 156.156 19.868 156.38 19.796C156.604 19.716 156.784 19.592 156.92 19.424C157.064 19.256 157.168 19.04 157.232 18.776C157.296 18.512 157.328 18.188 157.328 17.804H158.576C158.728 17.804 158.844 17.872 158.924 18.008C159.004 18.144 159.044 18.292 159.044 18.452C159.044 18.852 158.964 19.212 158.804 19.532C158.644 19.852 158.412 20.128 158.108 20.36C157.812 20.584 157.448 20.756 157.016 20.876C156.584 20.996 156.096 21.056 155.552 21.056C155.008 21.056 154.52 20.996 154.088 20.876C153.656 20.756 153.288 20.584 152.984 20.36C152.688 20.128 152.46 19.852 152.3 19.532C152.14 19.212 152.06 18.852 152.06 18.452C152.06 18.292 152.1 18.144 152.18 18.008C152.26 17.872 152.376 17.804 152.528 17.804H153.776C153.776 18.188 153.808 18.512 153.872 18.776C153.936 19.04 154.036 19.256 154.172 19.424C154.316 19.592 154.5 19.716 154.724 19.796C154.948 19.868 155.224 19.904 155.552 19.904ZM174.109 24.476H169.441V35H167.305V24.476H162.637V22.844H174.109V24.476ZM186.573 22.844V35H184.437V26.744C184.437 26.584 184.445 26.412 184.461 26.228C184.477 26.044 184.497 25.86 184.521 25.676C184.449 25.836 184.377 25.984 184.305 26.12C184.233 26.256 184.157 26.38 184.077 26.492L178.209 34.472C178.121 34.6 178.009 34.724 177.873 34.844C177.745 34.956 177.601 35.012 177.441 35.012H176.145V22.856H178.293V31.112C178.293 31.264 178.285 31.432 178.269 31.616C178.253 31.792 178.233 31.972 178.209 32.156C178.281 32.004 178.353 31.864 178.425 31.736C178.497 31.6 178.569 31.476 178.641 31.364L184.509 23.384C184.597 23.256 184.709 23.136 184.845 23.024C184.981 22.904 185.129 22.844 185.289 22.844H186.573ZM200.758 33.5C201.558 33.5 202.19 33.316 202.654 32.948C203.118 32.572 203.35 32.06 203.35 31.412C203.35 31.124 203.306 30.864 203.218 30.632C203.13 30.392 202.986 30.184 202.786 30.008C202.586 29.832 202.318 29.696 201.982 29.6C201.654 29.504 201.25 29.456 200.77 29.456H198.142V33.5H200.758ZM198.142 24.284V28.1H200.482C200.834 28.1 201.158 28.052 201.454 27.956C201.758 27.852 202.018 27.712 202.234 27.536C202.45 27.352 202.618 27.136 202.738 26.888C202.858 26.632 202.918 26.352 202.918 26.048C202.918 25.824 202.878 25.608 202.798 25.4C202.718 25.184 202.582 24.996 202.39 24.836C202.198 24.668 201.946 24.536 201.634 24.44C201.322 24.336 200.938 24.284 200.482 24.284H198.142ZM200.542 22.844C201.294 22.844 201.938 22.92 202.474 23.072C203.01 23.224 203.45 23.432 203.794 23.696C204.138 23.952 204.39 24.256 204.55 24.608C204.71 24.96 204.79 25.336 204.79 25.736C204.79 26 204.754 26.276 204.682 26.564C204.61 26.852 204.482 27.128 204.298 27.392C204.122 27.656 203.878 27.896 203.566 28.112C203.262 28.32 202.878 28.484 202.414 28.604C203.342 28.764 204.058 29.088 204.562 29.576C205.066 30.056 205.318 30.692 205.318 31.484C205.318 32.076 205.198 32.592 204.958 33.032C204.726 33.464 204.402 33.828 203.986 34.124C203.578 34.42 203.098 34.64 202.546 34.784C201.994 34.928 201.402 35 200.77 35H196.09V22.844H200.542ZM214.585 29.528C213.601 29.56 212.761 29.64 212.065 29.768C211.377 29.888 210.813 30.048 210.373 30.248C209.941 30.448 209.625 30.684 209.425 30.956C209.233 31.228 209.137 31.532 209.137 31.868C209.137 32.188 209.189 32.464 209.293 32.696C209.397 32.928 209.537 33.12 209.713 33.272C209.897 33.416 210.109 33.524 210.349 33.596C210.597 33.66 210.861 33.692 211.141 33.692C211.517 33.692 211.861 33.656 212.173 33.584C212.485 33.504 212.777 33.392 213.049 33.248C213.329 33.104 213.593 32.932 213.841 32.732C214.097 32.532 214.345 32.304 214.585 32.048V29.528ZM207.685 24.56C208.357 23.912 209.081 23.428 209.857 23.108C210.633 22.788 211.493 22.628 212.437 22.628C213.117 22.628 213.721 22.74 214.249 22.964C214.777 23.188 215.221 23.5 215.581 23.9C215.941 24.3 216.213 24.784 216.397 25.352C216.581 25.92 216.673 26.544 216.673 27.224V35H215.725C215.517 35 215.357 34.968 215.245 34.904C215.133 34.832 215.045 34.696 214.981 34.496L214.741 33.344C214.421 33.64 214.109 33.904 213.805 34.136C213.501 34.36 213.181 34.552 212.845 34.712C212.509 34.864 212.149 34.98 211.765 35.06C211.389 35.148 210.969 35.192 210.505 35.192C210.033 35.192 209.589 35.128 209.173 35C208.757 34.864 208.393 34.664 208.081 34.4C207.777 34.136 207.533 33.804 207.349 33.404C207.173 32.996 207.085 32.516 207.085 31.964C207.085 31.484 207.217 31.024 207.481 30.584C207.745 30.136 208.173 29.74 208.765 29.396C209.357 29.052 210.129 28.772 211.081 28.556C212.033 28.332 213.201 28.204 214.585 28.172V27.224C214.585 26.28 214.381 25.568 213.973 25.088C213.565 24.6 212.969 24.356 212.185 24.356C211.657 24.356 211.213 24.424 210.853 24.56C210.501 24.688 210.193 24.836 209.929 25.004C209.673 25.164 209.449 25.312 209.257 25.448C209.073 25.576 208.889 25.64 208.705 25.64C208.561 25.64 208.437 25.604 208.333 25.532C208.229 25.452 208.141 25.356 208.069 25.244L207.685 24.56ZM230.582 35H228.446V24.524H224.606C224.51 26.068 224.366 27.404 224.174 28.532C223.982 29.652 223.75 30.608 223.478 31.4C223.214 32.184 222.914 32.824 222.578 33.32C222.25 33.808 221.902 34.188 221.534 34.46C221.174 34.732 220.798 34.916 220.406 35.012C220.022 35.108 219.638 35.156 219.254 35.156C218.574 35.156 218.234 35.048 218.234 34.832V33.476H218.858C219.13 33.476 219.406 33.428 219.686 33.332C219.966 33.236 220.238 33.052 220.502 32.78C220.774 32.508 221.034 32.128 221.282 31.64C221.53 31.144 221.754 30.504 221.954 29.72C222.162 28.928 222.338 27.972 222.482 26.852C222.634 25.724 222.75 24.388 222.83 22.844H230.582V35ZM244.393 22.844V35H242.257V26.744C242.257 26.584 242.265 26.412 242.281 26.228C242.297 26.044 242.317 25.86 242.341 25.676C242.269 25.836 242.197 25.984 242.125 26.12C242.053 26.256 241.977 26.38 241.897 26.492L236.029 34.472C235.941 34.6 235.829 34.724 235.693 34.844C235.565 34.956 235.421 35.012 235.261 35.012H233.965V22.856H236.113V31.112C236.113 31.264 236.105 31.432 236.089 31.616C236.073 31.792 236.053 31.972 236.029 32.156C236.101 32.004 236.173 31.864 236.245 31.736C236.317 31.6 236.389 31.476 236.461 31.364L242.329 23.384C242.417 23.256 242.529 23.136 242.665 23.024C242.801 22.904 242.949 22.844 243.109 22.844H244.393ZM256.146 33.44V24.524H252.294C252.214 25.772 252.102 26.876 251.958 27.836C251.814 28.796 251.646 29.64 251.454 30.368C251.27 31.088 251.062 31.7 250.83 32.204C250.606 32.708 250.37 33.12 250.122 33.44H256.146ZM260.442 33.38V38.528C260.442 38.736 260.382 38.896 260.262 39.008C260.15 39.128 260.002 39.188 259.818 39.188H258.51V35H248.286V38.576C248.286 38.728 248.238 38.868 248.142 38.996C248.054 39.124 247.906 39.188 247.698 39.188H246.354V33.44H246.75C247.03 33.44 247.306 33.392 247.578 33.296C247.858 33.2 248.126 33.02 248.382 32.756C248.638 32.484 248.878 32.104 249.102 31.616C249.334 31.128 249.542 30.492 249.726 29.708C249.91 28.924 250.07 27.972 250.206 26.852C250.342 25.724 250.45 24.388 250.53 22.844H258.222V33.38H260.442ZM269.194 29.528C268.21 29.56 267.37 29.64 266.674 29.768C265.986 29.888 265.422 30.048 264.982 30.248C264.55 30.448 264.234 30.684 264.034 30.956C263.842 31.228 263.746 31.532 263.746 31.868C263.746 32.188 263.798 32.464 263.902 32.696C264.006 32.928 264.146 33.12 264.322 33.272C264.506 33.416 264.718 33.524 264.958 33.596C265.206 33.66 265.47 33.692 265.75 33.692C266.126 33.692 266.47 33.656 266.782 33.584C267.094 33.504 267.386 33.392 267.658 33.248C267.938 33.104 268.202 32.932 268.45 32.732C268.706 32.532 268.954 32.304 269.194 32.048V29.528ZM262.294 24.56C262.966 23.912 263.69 23.428 264.466 23.108C265.242 22.788 266.102 22.628 267.046 22.628C267.726 22.628 268.33 22.74 268.858 22.964C269.386 23.188 269.83 23.5 270.19 23.9C270.55 24.3 270.822 24.784 271.006 25.352C271.19 25.92 271.282 26.544 271.282 27.224V35H270.334C270.126 35 269.966 34.968 269.854 34.904C269.742 34.832 269.654 34.696 269.59 34.496L269.35 33.344C269.03 33.64 268.718 33.904 268.414 34.136C268.11 34.36 267.79 34.552 267.454 34.712C267.118 34.864 266.758 34.98 266.374 35.06C265.998 35.148 265.578 35.192 265.114 35.192C264.642 35.192 264.198 35.128 263.782 35C263.366 34.864 263.002 34.664 262.69 34.4C262.386 34.136 262.142 33.804 261.958 33.404C261.782 32.996 261.694 32.516 261.694 31.964C261.694 31.484 261.826 31.024 262.09 30.584C262.354 30.136 262.782 29.74 263.374 29.396C263.966 29.052 264.738 28.772 265.69 28.556C266.642 28.332 267.81 28.204 269.194 28.172V27.224C269.194 26.28 268.99 25.568 268.582 25.088C268.174 24.6 267.578 24.356 266.794 24.356C266.266 24.356 265.822 24.424 265.462 24.56C265.11 24.688 264.802 24.836 264.538 25.004C264.282 25.164 264.058 25.312 263.866 25.448C263.682 25.576 263.498 25.64 263.314 25.64C263.17 25.64 263.046 25.604 262.942 25.532C262.838 25.452 262.75 25.356 262.678 25.244L262.294 24.56ZM286.884 33.38V38.528C286.884 38.736 286.824 38.896 286.704 39.008C286.592 39.128 286.444 39.188 286.26 39.188H284.952V35H274.536V22.844H276.684V33.38H282.516V22.844H284.664V33.38H286.884ZM299.472 22.844V35H297.336V26.744C297.336 26.584 297.344 26.412 297.36 26.228C297.376 26.044 297.396 25.86 297.42 25.676C297.348 25.836 297.276 25.984 297.204 26.12C297.132 26.256 297.056 26.38 296.976 26.492L291.108 34.472C291.02 34.6 290.908 34.724 290.772 34.844C290.644 34.956 290.5 35.012 290.34 35.012H289.044V22.856H291.192V31.112C291.192 31.264 291.184 31.432 291.168 31.616C291.152 31.792 291.132 31.972 291.108 32.156C291.18 32.004 291.252 31.864 291.324 31.736C291.396 31.6 291.468 31.476 291.54 31.364L297.408 23.384C297.496 23.256 297.608 23.136 297.744 23.024C297.88 22.904 298.028 22.844 298.188 22.844H299.472ZM313.384 33.5C314.504 33.5 315.34 33.1 315.892 32.3C316.444 31.492 316.72 30.368 316.72 28.928C316.72 27.48 316.444 26.352 315.892 25.544C315.34 24.736 314.504 24.332 313.384 24.332C312.264 24.332 311.428 24.736 310.876 25.544C310.324 26.352 310.048 27.48 310.048 28.928C310.048 30.368 310.324 31.492 310.876 32.3C311.428 33.1 312.264 33.5 313.384 33.5ZM307.948 28.088C308.02 27.256 308.192 26.504 308.464 25.832C308.744 25.16 309.116 24.588 309.58 24.116C310.052 23.644 310.604 23.284 311.236 23.036C311.876 22.78 312.592 22.652 313.384 22.652C314.232 22.652 314.996 22.8 315.676 23.096C316.364 23.392 316.948 23.812 317.428 24.356C317.908 24.9 318.276 25.56 318.532 26.336C318.796 27.104 318.928 27.964 318.928 28.916C318.928 29.876 318.796 30.74 318.532 31.508C318.268 32.276 317.892 32.932 317.404 33.476C316.916 34.02 316.332 34.44 315.652 34.736C314.972 35.024 314.216 35.168 313.384 35.168C312.576 35.168 311.848 35.04 311.2 34.784C310.56 34.528 310.008 34.164 309.544 33.692C309.08 33.212 308.708 32.632 308.428 31.952C308.156 31.272 307.992 30.504 307.936 29.648H304.996V35H302.848V22.844H304.996V28.088H307.948Z" fill="white"/>
</svg>
