<svg width="424" height="52" viewBox="0 0 424 52" fill="none" xmlns="http://www.w3.org/2000/svg">
<rect width="424" height="52" rx="26" fill="#373737"/>
<path d="M142.588 33.152C143.252 33.152 143.824 33.076 144.304 32.924C144.784 32.772 145.176 32.56 145.48 32.288C145.792 32.008 146.02 31.68 146.164 31.304C146.308 30.92 146.38 30.5 146.38 30.044C146.38 29.156 146.064 28.456 145.432 27.944C144.8 27.424 143.852 27.164 142.588 27.164H138.868V33.152H142.588ZM138.868 19.64V25.508H141.94C142.596 25.508 143.164 25.436 143.644 25.292C144.132 25.148 144.532 24.948 144.844 24.692C145.164 24.436 145.4 24.128 145.552 23.768C145.704 23.4 145.78 23 145.78 22.568C145.78 21.552 145.476 20.812 144.868 20.348C144.26 19.876 143.316 19.64 142.036 19.64H138.868ZM142.036 17.804C143.092 17.804 144 17.908 144.76 18.116C145.528 18.324 146.156 18.62 146.644 19.004C147.14 19.388 147.504 19.86 147.736 20.42C147.968 20.972 148.084 21.596 148.084 22.292C148.084 22.716 148.016 23.124 147.88 23.516C147.752 23.9 147.556 24.26 147.292 24.596C147.028 24.932 146.692 25.236 146.284 25.508C145.884 25.772 145.412 25.988 144.868 26.156C146.132 26.396 147.08 26.848 147.712 27.512C148.352 28.168 148.672 29.032 148.672 30.104C148.672 30.832 148.536 31.496 148.264 32.096C148 32.696 147.608 33.212 147.088 33.644C146.576 34.076 145.944 34.412 145.192 34.652C144.44 34.884 143.584 35 142.624 35H136.552V17.804H142.036ZM159.836 25.004C159.772 25.092 159.708 25.16 159.644 25.208C159.58 25.256 159.492 25.28 159.38 25.28C159.26 25.28 159.128 25.232 158.984 25.136C158.84 25.032 158.66 24.92 158.444 24.8C158.236 24.68 157.976 24.572 157.664 24.476C157.36 24.372 156.984 24.32 156.536 24.32C155.936 24.32 155.408 24.428 154.952 24.644C154.496 24.852 154.112 25.156 153.8 25.556C153.496 25.956 153.264 26.44 153.104 27.008C152.952 27.576 152.876 28.212 152.876 28.916C152.876 29.652 152.96 30.308 153.128 30.884C153.296 31.452 153.532 31.932 153.836 32.324C154.148 32.708 154.52 33.004 154.952 33.212C155.392 33.412 155.884 33.512 156.428 33.512C156.948 33.512 157.376 33.452 157.712 33.332C158.048 33.204 158.324 33.064 158.54 32.912C158.764 32.76 158.948 32.624 159.092 32.504C159.244 32.376 159.392 32.312 159.536 32.312C159.712 32.312 159.848 32.38 159.944 32.516L160.544 33.296C160.28 33.624 159.98 33.904 159.644 34.136C159.308 34.368 158.944 34.564 158.552 34.724C158.168 34.876 157.764 34.988 157.34 35.06C156.916 35.132 156.484 35.168 156.044 35.168C155.284 35.168 154.576 35.028 153.92 34.748C153.272 34.468 152.708 34.064 152.228 33.536C151.748 33 151.372 32.344 151.1 31.568C150.828 30.792 150.692 29.908 150.692 28.916C150.692 28.012 150.816 27.176 151.064 26.408C151.32 25.64 151.688 24.98 152.168 24.428C152.656 23.868 153.252 23.432 153.956 23.12C154.668 22.808 155.484 22.652 156.404 22.652C157.26 22.652 158.012 22.792 158.66 23.072C159.316 23.344 159.896 23.732 160.4 24.236L159.836 25.004ZM170.762 27.596C170.762 27.1 170.69 26.648 170.546 26.24C170.41 25.824 170.206 25.468 169.934 25.172C169.67 24.868 169.346 24.636 168.962 24.476C168.578 24.308 168.142 24.224 167.654 24.224C166.63 24.224 165.818 24.524 165.218 25.124C164.626 25.716 164.258 26.54 164.114 27.596H170.762ZM172.49 33.296C172.226 33.616 171.91 33.896 171.542 34.136C171.174 34.368 170.778 34.56 170.354 34.712C169.938 34.864 169.506 34.976 169.058 35.048C168.61 35.128 168.166 35.168 167.726 35.168C166.886 35.168 166.11 35.028 165.398 34.748C164.694 34.46 164.082 34.044 163.562 33.5C163.05 32.948 162.65 32.268 162.362 31.46C162.074 30.652 161.93 29.724 161.93 28.676C161.93 27.828 162.058 27.036 162.314 26.3C162.578 25.564 162.954 24.928 163.442 24.392C163.93 23.848 164.526 23.424 165.23 23.12C165.934 22.808 166.726 22.652 167.606 22.652C168.334 22.652 169.006 22.776 169.622 23.024C170.246 23.264 170.782 23.616 171.23 24.08C171.686 24.536 172.042 25.104 172.298 25.784C172.554 26.456 172.682 27.224 172.682 28.088C172.682 28.424 172.646 28.648 172.574 28.76C172.502 28.872 172.366 28.928 172.166 28.928H164.042C164.066 29.696 164.17 30.364 164.354 30.932C164.546 31.5 164.81 31.976 165.146 32.36C165.482 32.736 165.882 33.02 166.346 33.212C166.81 33.396 167.33 33.488 167.906 33.488C168.442 33.488 168.902 33.428 169.286 33.308C169.678 33.18 170.014 33.044 170.294 32.9C170.574 32.756 170.806 32.624 170.99 32.504C171.182 32.376 171.346 32.312 171.482 32.312C171.658 32.312 171.794 32.38 171.89 32.516L172.49 33.296ZM189.907 25.004C189.843 25.092 189.779 25.16 189.715 25.208C189.651 25.256 189.563 25.28 189.451 25.28C189.331 25.28 189.199 25.232 189.055 25.136C188.911 25.032 188.731 24.92 188.515 24.8C188.307 24.68 188.047 24.572 187.735 24.476C187.431 24.372 187.055 24.32 186.607 24.32C186.007 24.32 185.479 24.428 185.023 24.644C184.567 24.852 184.183 25.156 183.871 25.556C183.567 25.956 183.335 26.44 183.175 27.008C183.023 27.576 182.947 28.212 182.947 28.916C182.947 29.652 183.031 30.308 183.199 30.884C183.367 31.452 183.603 31.932 183.907 32.324C184.219 32.708 184.591 33.004 185.023 33.212C185.463 33.412 185.955 33.512 186.499 33.512C187.019 33.512 187.447 33.452 187.783 33.332C188.119 33.204 188.395 33.064 188.611 32.912C188.835 32.76 189.019 32.624 189.163 32.504C189.315 32.376 189.463 32.312 189.607 32.312C189.783 32.312 189.919 32.38 190.015 32.516L190.615 33.296C190.351 33.624 190.051 33.904 189.715 34.136C189.379 34.368 189.015 34.564 188.623 34.724C188.239 34.876 187.835 34.988 187.411 35.06C186.987 35.132 186.555 35.168 186.115 35.168C185.355 35.168 184.647 35.028 183.991 34.748C183.343 34.468 182.779 34.064 182.299 33.536C181.819 33 181.443 32.344 181.171 31.568C180.899 30.792 180.763 29.908 180.763 28.916C180.763 28.012 180.887 27.176 181.135 26.408C181.391 25.64 181.759 24.98 182.239 24.428C182.727 23.868 183.323 23.432 184.027 23.12C184.739 22.808 185.555 22.652 186.475 22.652C187.331 22.652 188.083 22.792 188.731 23.072C189.387 23.344 189.967 23.732 190.471 24.236L189.907 25.004ZM203.012 24.476H198.344V35H196.208V24.476H191.54V22.844H203.012V24.476ZM211.519 29.528C210.535 29.56 209.695 29.64 208.999 29.768C208.311 29.888 207.747 30.048 207.307 30.248C206.875 30.448 206.559 30.684 206.359 30.956C206.167 31.228 206.071 31.532 206.071 31.868C206.071 32.188 206.123 32.464 206.227 32.696C206.331 32.928 206.471 33.12 206.647 33.272C206.831 33.416 207.043 33.524 207.283 33.596C207.531 33.66 207.795 33.692 208.075 33.692C208.451 33.692 208.795 33.656 209.107 33.584C209.419 33.504 209.711 33.392 209.983 33.248C210.263 33.104 210.527 32.932 210.775 32.732C211.031 32.532 211.279 32.304 211.519 32.048V29.528ZM204.619 24.56C205.291 23.912 206.015 23.428 206.791 23.108C207.567 22.788 208.427 22.628 209.371 22.628C210.051 22.628 210.655 22.74 211.183 22.964C211.711 23.188 212.155 23.5 212.515 23.9C212.875 24.3 213.147 24.784 213.331 25.352C213.515 25.92 213.607 26.544 213.607 27.224V35H212.659C212.451 35 212.291 34.968 212.179 34.904C212.067 34.832 211.979 34.696 211.915 34.496L211.675 33.344C211.355 33.64 211.043 33.904 210.739 34.136C210.435 34.36 210.115 34.552 209.779 34.712C209.443 34.864 209.083 34.98 208.699 35.06C208.323 35.148 207.903 35.192 207.439 35.192C206.967 35.192 206.523 35.128 206.107 35C205.691 34.864 205.327 34.664 205.015 34.4C204.711 34.136 204.467 33.804 204.283 33.404C204.107 32.996 204.019 32.516 204.019 31.964C204.019 31.484 204.151 31.024 204.415 30.584C204.679 30.136 205.107 29.74 205.699 29.396C206.291 29.052 207.063 28.772 208.015 28.556C208.967 28.332 210.135 28.204 211.519 28.172V27.224C211.519 26.28 211.315 25.568 210.907 25.088C210.499 24.6 209.903 24.356 209.119 24.356C208.591 24.356 208.147 24.424 207.787 24.56C207.435 24.688 207.127 24.836 206.863 25.004C206.607 25.164 206.383 25.312 206.191 25.448C206.007 25.576 205.823 25.64 205.639 25.64C205.495 25.64 205.371 25.604 205.267 25.532C205.163 25.452 205.075 25.356 205.003 25.244L204.619 24.56ZM226.66 24.476H221.992V35H219.856V24.476H215.188V22.844H226.66V24.476ZM233.365 33.44C233.797 33.44 234.169 33.388 234.481 33.284C234.801 33.172 235.065 33.02 235.273 32.828C235.481 32.628 235.637 32.396 235.741 32.132C235.845 31.868 235.897 31.58 235.897 31.268C235.897 30.98 235.853 30.712 235.765 30.464C235.677 30.208 235.529 29.984 235.321 29.792C235.121 29.6 234.857 29.448 234.529 29.336C234.201 29.224 233.801 29.168 233.329 29.168H230.749V33.44H233.365ZM233.329 27.608C234.169 27.608 234.873 27.708 235.441 27.908C236.017 28.108 236.477 28.376 236.821 28.712C237.173 29.048 237.425 29.436 237.577 29.876C237.729 30.316 237.805 30.772 237.805 31.244C237.805 31.788 237.709 32.292 237.517 32.756C237.325 33.212 237.041 33.608 236.665 33.944C236.289 34.272 235.825 34.532 235.273 34.724C234.721 34.908 234.085 35 233.365 35H228.697V22.844H230.749V27.608H233.329ZM250.609 22.844V35H248.473V26.744C248.473 26.584 248.481 26.412 248.497 26.228C248.513 26.044 248.533 25.86 248.557 25.676C248.485 25.836 248.413 25.984 248.341 26.12C248.269 26.256 248.193 26.38 248.113 26.492L242.245 34.472C242.157 34.6 242.045 34.724 241.909 34.844C241.781 34.956 241.637 35.012 241.477 35.012H240.181V22.856H242.329V31.112C242.329 31.264 242.321 31.432 242.305 31.616C242.289 31.792 242.269 31.972 242.245 32.156C242.317 32.004 242.389 31.864 242.461 31.736C242.533 31.6 242.605 31.476 242.677 31.364L248.545 23.384C248.633 23.256 248.745 23.136 248.881 23.024C249.017 22.904 249.165 22.844 249.325 22.844H250.609Z" fill="white"/>
<path d="M289.644 26C279.88 28.1226 267.356 38.5 267.356 38.5L267.356 13.5C267.356 13.5 279.88 23.0283 289.644 26Z" fill="white"/>
</svg>
