<svg width="424" height="52" viewBox="0 0 424 52" fill="none" xmlns="http://www.w3.org/2000/svg">
<rect width="424" height="52" rx="26" fill="#373737"/>
<path d="M113.588 33.152C114.252 33.152 114.824 33.076 115.304 32.924C115.784 32.772 116.176 32.56 116.48 32.288C116.792 32.008 117.02 31.68 117.164 31.304C117.308 30.92 117.38 30.5 117.38 30.044C117.38 29.156 117.064 28.456 116.432 27.944C115.8 27.424 114.852 27.164 113.588 27.164H109.868V33.152H113.588ZM109.868 19.64V25.508H112.94C113.596 25.508 114.164 25.436 114.644 25.292C115.132 25.148 115.532 24.948 115.844 24.692C116.164 24.436 116.4 24.128 116.552 23.768C116.704 23.4 116.78 23 116.78 22.568C116.78 21.552 116.476 20.812 115.868 20.348C115.26 19.876 114.316 19.64 113.036 19.64H109.868ZM113.036 17.804C114.092 17.804 115 17.908 115.76 18.116C116.528 18.324 117.156 18.62 117.644 19.004C118.14 19.388 118.504 19.86 118.736 20.42C118.968 20.972 119.084 21.596 119.084 22.292C119.084 22.716 119.016 23.124 118.88 23.516C118.752 23.9 118.556 24.26 118.292 24.596C118.028 24.932 117.692 25.236 117.284 25.508C116.884 25.772 116.412 25.988 115.868 26.156C117.132 26.396 118.08 26.848 118.712 27.512C119.352 28.168 119.672 29.032 119.672 30.104C119.672 30.832 119.536 31.496 119.264 32.096C119 32.696 118.608 33.212 118.088 33.644C117.576 34.076 116.944 34.412 116.192 34.652C115.44 34.884 114.584 35 113.624 35H107.552V17.804H113.036ZM130.837 25.004C130.773 25.092 130.709 25.16 130.645 25.208C130.581 25.256 130.493 25.28 130.381 25.28C130.261 25.28 130.129 25.232 129.985 25.136C129.841 25.032 129.661 24.92 129.445 24.8C129.237 24.68 128.977 24.572 128.665 24.476C128.361 24.372 127.985 24.32 127.537 24.32C126.937 24.32 126.409 24.428 125.953 24.644C125.497 24.852 125.113 25.156 124.801 25.556C124.497 25.956 124.265 26.44 124.105 27.008C123.953 27.576 123.877 28.212 123.877 28.916C123.877 29.652 123.961 30.308 124.129 30.884C124.297 31.452 124.533 31.932 124.837 32.324C125.149 32.708 125.521 33.004 125.953 33.212C126.393 33.412 126.885 33.512 127.429 33.512C127.949 33.512 128.377 33.452 128.713 33.332C129.049 33.204 129.325 33.064 129.541 32.912C129.765 32.76 129.949 32.624 130.093 32.504C130.245 32.376 130.393 32.312 130.537 32.312C130.713 32.312 130.849 32.38 130.945 32.516L131.545 33.296C131.281 33.624 130.981 33.904 130.645 34.136C130.309 34.368 129.945 34.564 129.553 34.724C129.169 34.876 128.765 34.988 128.341 35.06C127.917 35.132 127.485 35.168 127.045 35.168C126.285 35.168 125.577 35.028 124.921 34.748C124.273 34.468 123.709 34.064 123.229 33.536C122.749 33 122.373 32.344 122.101 31.568C121.829 30.792 121.693 29.908 121.693 28.916C121.693 28.012 121.817 27.176 122.065 26.408C122.321 25.64 122.689 24.98 123.169 24.428C123.657 23.868 124.253 23.432 124.957 23.12C125.669 22.808 126.485 22.652 127.405 22.652C128.261 22.652 129.013 22.792 129.661 23.072C130.317 23.344 130.897 23.732 131.401 24.236L130.837 25.004ZM141.763 27.596C141.763 27.1 141.691 26.648 141.547 26.24C141.411 25.824 141.207 25.468 140.935 25.172C140.671 24.868 140.347 24.636 139.963 24.476C139.579 24.308 139.143 24.224 138.655 24.224C137.631 24.224 136.819 24.524 136.219 25.124C135.627 25.716 135.259 26.54 135.115 27.596H141.763ZM143.491 33.296C143.227 33.616 142.911 33.896 142.543 34.136C142.175 34.368 141.779 34.56 141.355 34.712C140.939 34.864 140.507 34.976 140.059 35.048C139.611 35.128 139.167 35.168 138.727 35.168C137.887 35.168 137.111 35.028 136.399 34.748C135.695 34.46 135.083 34.044 134.563 33.5C134.051 32.948 133.651 32.268 133.363 31.46C133.075 30.652 132.931 29.724 132.931 28.676C132.931 27.828 133.059 27.036 133.315 26.3C133.579 25.564 133.955 24.928 134.443 24.392C134.931 23.848 135.527 23.424 136.231 23.12C136.935 22.808 137.727 22.652 138.607 22.652C139.335 22.652 140.007 22.776 140.623 23.024C141.247 23.264 141.783 23.616 142.231 24.08C142.687 24.536 143.043 25.104 143.299 25.784C143.555 26.456 143.683 27.224 143.683 28.088C143.683 28.424 143.647 28.648 143.575 28.76C143.503 28.872 143.367 28.928 143.167 28.928H135.043C135.067 29.696 135.171 30.364 135.355 30.932C135.547 31.5 135.811 31.976 136.147 32.36C136.483 32.736 136.883 33.02 137.347 33.212C137.811 33.396 138.331 33.488 138.907 33.488C139.443 33.488 139.903 33.428 140.287 33.308C140.679 33.18 141.015 33.044 141.295 32.9C141.575 32.756 141.807 32.624 141.991 32.504C142.183 32.376 142.347 32.312 142.483 32.312C142.659 32.312 142.795 32.38 142.891 32.516L143.491 33.296ZM157.571 22.652C158.459 22.652 159.259 22.8 159.971 23.096C160.683 23.392 161.291 23.812 161.795 24.356C162.299 24.9 162.683 25.56 162.947 26.336C163.219 27.104 163.355 27.964 163.355 28.916C163.355 29.876 163.219 30.74 162.947 31.508C162.683 32.276 162.299 32.932 161.795 33.476C161.291 34.02 160.683 34.44 159.971 34.736C159.259 35.024 158.459 35.168 157.571 35.168C156.675 35.168 155.867 35.024 155.147 34.736C154.435 34.44 153.827 34.02 153.323 33.476C152.819 32.932 152.431 32.276 152.159 31.508C151.895 30.74 151.763 29.876 151.763 28.916C151.763 27.964 151.895 27.104 152.159 26.336C152.431 25.56 152.819 24.9 153.323 24.356C153.827 23.812 154.435 23.392 155.147 23.096C155.867 22.8 156.675 22.652 157.571 22.652ZM157.571 33.5C158.771 33.5 159.667 33.1 160.259 32.3C160.851 31.492 161.147 30.368 161.147 28.928C161.147 27.48 160.851 26.352 160.259 25.544C159.667 24.736 158.771 24.332 157.571 24.332C156.963 24.332 156.431 24.436 155.975 24.644C155.527 24.852 155.151 25.152 154.847 25.544C154.551 25.936 154.327 26.42 154.175 26.996C154.031 27.564 153.959 28.208 153.959 28.928C153.959 30.368 154.255 31.492 154.847 32.3C155.447 33.1 156.355 33.5 157.571 33.5ZM171.548 33.584C172.748 33.584 173.652 33.204 174.26 32.444C174.876 31.676 175.184 30.604 175.184 29.228C175.184 27.86 174.888 26.792 174.296 26.024C173.712 25.256 172.832 24.872 171.656 24.872C171.088 24.872 170.576 24.964 170.12 25.148C169.664 25.324 169.276 25.584 168.956 25.928C168.644 26.272 168.4 26.696 168.224 27.2C168.056 27.704 167.972 28.28 167.972 28.928C167.972 29.656 168.048 30.308 168.2 30.884C168.352 31.46 168.576 31.948 168.872 32.348C169.176 32.748 169.548 33.056 169.988 33.272C170.436 33.48 170.956 33.584 171.548 33.584ZM172.376 19.988C171.56 20.06 170.86 20.24 170.276 20.528C169.7 20.816 169.22 21.208 168.836 21.704C168.452 22.192 168.164 22.78 167.972 23.468C167.78 24.156 167.668 24.932 167.636 25.796C167.828 25.412 168.076 25.068 168.38 24.764C168.684 24.452 169.032 24.188 169.424 23.972C169.816 23.748 170.24 23.58 170.696 23.468C171.16 23.348 171.652 23.288 172.172 23.288C172.98 23.288 173.704 23.432 174.344 23.72C174.992 24 175.54 24.4 175.988 24.92C176.444 25.44 176.792 26.068 177.032 26.804C177.272 27.532 177.392 28.34 177.392 29.228C177.392 30.132 177.252 30.952 176.972 31.688C176.7 32.416 176.308 33.04 175.796 33.56C175.284 34.072 174.668 34.468 173.948 34.748C173.236 35.028 172.436 35.168 171.548 35.168C170.732 35.168 169.968 35.032 169.256 34.76C168.544 34.488 167.928 34.04 167.408 33.416C166.888 32.792 166.476 31.972 166.172 30.956C165.876 29.932 165.728 28.672 165.728 27.176C165.728 25.896 165.844 24.72 166.076 23.648C166.308 22.576 166.68 21.644 167.192 20.852C167.712 20.06 168.38 19.424 169.196 18.944C170.02 18.456 171.02 18.16 172.196 18.056L176.54 17.684L176.66 18.788C176.684 19.036 176.648 19.244 176.552 19.412C176.456 19.58 176.284 19.672 176.036 19.688L172.376 19.988ZM186.332 33.44C186.764 33.44 187.136 33.388 187.448 33.284C187.768 33.172 188.032 33.02 188.24 32.828C188.456 32.628 188.616 32.396 188.72 32.132C188.824 31.868 188.876 31.58 188.876 31.268C188.876 30.98 188.828 30.712 188.732 30.464C188.644 30.208 188.496 29.984 188.288 29.792C188.088 29.6 187.824 29.448 187.496 29.336C187.176 29.224 186.78 29.168 186.308 29.168H183.476V33.44H186.332ZM186.296 27.608C187.136 27.608 187.84 27.708 188.408 27.908C188.984 28.108 189.448 28.376 189.8 28.712C190.152 29.048 190.404 29.436 190.556 29.876C190.708 30.316 190.784 30.772 190.784 31.244C190.784 31.788 190.684 32.292 190.484 32.756C190.292 33.212 190.008 33.608 189.632 33.944C189.256 34.272 188.792 34.532 188.24 34.724C187.688 34.908 187.056 35 186.344 35H181.436V24.512H178.232V22.868H181.436V19.448H183.476V22.868H187.364V24.512H183.476V27.608H186.296ZM198.944 28.52V24.284H196.904C196.448 24.284 196.064 24.352 195.752 24.488C195.44 24.616 195.188 24.784 194.996 24.992C194.812 25.192 194.68 25.42 194.6 25.676C194.52 25.924 194.48 26.172 194.48 26.42C194.48 27.076 194.72 27.592 195.2 27.968C195.68 28.336 196.336 28.52 197.168 28.52H198.944ZM200.984 22.844V35H198.944V29.876H198.008C197.784 29.876 197.596 29.896 197.444 29.936C197.3 29.968 197.172 30.016 197.06 30.08C196.956 30.144 196.864 30.228 196.784 30.332C196.704 30.428 196.62 30.54 196.532 30.668L193.868 34.256C193.732 34.512 193.564 34.7 193.364 34.82C193.172 34.94 192.888 35 192.512 35H191.024L194.552 30.416C194.84 29.936 195.22 29.616 195.692 29.456C195.076 29.376 194.556 29.232 194.132 29.024C193.708 28.816 193.36 28.572 193.088 28.292C192.824 28.004 192.632 27.688 192.512 27.344C192.392 27 192.332 26.652 192.332 26.3C192.332 25.884 192.412 25.468 192.572 25.052C192.74 24.636 193.004 24.268 193.364 23.948C193.724 23.62 194.188 23.356 194.756 23.156C195.332 22.948 196.028 22.844 196.844 22.844H200.984ZM209.052 33.5C209.852 33.5 210.484 33.316 210.948 32.948C211.412 32.572 211.644 32.06 211.644 31.412C211.644 31.124 211.6 30.864 211.512 30.632C211.424 30.392 211.28 30.184 211.08 30.008C210.88 29.832 210.612 29.696 210.276 29.6C209.948 29.504 209.544 29.456 209.064 29.456H206.436V33.5H209.052ZM206.436 24.284V28.1H208.776C209.128 28.1 209.452 28.052 209.748 27.956C210.052 27.852 210.312 27.712 210.528 27.536C210.744 27.352 210.912 27.136 211.032 26.888C211.152 26.632 211.212 26.352 211.212 26.048C211.212 25.824 211.172 25.608 211.092 25.4C211.012 25.184 210.876 24.996 210.684 24.836C210.492 24.668 210.24 24.536 209.928 24.44C209.616 24.336 209.232 24.284 208.776 24.284H206.436ZM208.836 22.844C209.588 22.844 210.232 22.92 210.768 23.072C211.304 23.224 211.744 23.432 212.088 23.696C212.432 23.952 212.684 24.256 212.844 24.608C213.004 24.96 213.084 25.336 213.084 25.736C213.084 26 213.048 26.276 212.976 26.564C212.904 26.852 212.776 27.128 212.592 27.392C212.416 27.656 212.172 27.896 211.86 28.112C211.556 28.32 211.172 28.484 210.708 28.604C211.636 28.764 212.352 29.088 212.856 29.576C213.36 30.056 213.612 30.692 213.612 31.484C213.612 32.076 213.492 32.592 213.252 33.032C213.02 33.464 212.696 33.828 212.28 34.124C211.872 34.42 211.392 34.64 210.84 34.784C210.288 34.928 209.696 35 209.064 35H204.384V22.844H208.836ZM226.947 35H224.811V24.524H220.971C220.875 26.068 220.731 27.404 220.539 28.532C220.347 29.652 220.115 30.608 219.843 31.4C219.579 32.184 219.279 32.824 218.943 33.32C218.615 33.808 218.267 34.188 217.899 34.46C217.539 34.732 217.163 34.916 216.771 35.012C216.387 35.108 216.003 35.156 215.619 35.156C214.939 35.156 214.599 35.048 214.599 34.832V33.476H215.223C215.495 33.476 215.771 33.428 216.051 33.332C216.331 33.236 216.603 33.052 216.867 32.78C217.139 32.508 217.399 32.128 217.647 31.64C217.895 31.144 218.119 30.504 218.319 29.72C218.527 28.928 218.703 27.972 218.847 26.852C218.999 25.724 219.115 24.388 219.195 22.844H226.947V35ZM238.466 27.596C238.466 27.1 238.394 26.648 238.25 26.24C238.114 25.824 237.91 25.468 237.638 25.172C237.374 24.868 237.05 24.636 236.666 24.476C236.282 24.308 235.846 24.224 235.358 24.224C234.334 24.224 233.522 24.524 232.922 25.124C232.33 25.716 231.962 26.54 231.818 27.596H238.466ZM240.194 33.296C239.93 33.616 239.614 33.896 239.246 34.136C238.878 34.368 238.482 34.56 238.058 34.712C237.642 34.864 237.21 34.976 236.762 35.048C236.314 35.128 235.87 35.168 235.43 35.168C234.59 35.168 233.814 35.028 233.102 34.748C232.398 34.46 231.786 34.044 231.266 33.5C230.754 32.948 230.354 32.268 230.066 31.46C229.778 30.652 229.634 29.724 229.634 28.676C229.634 27.828 229.762 27.036 230.018 26.3C230.282 25.564 230.658 24.928 231.146 24.392C231.634 23.848 232.23 23.424 232.934 23.12C233.638 22.808 234.43 22.652 235.31 22.652C236.038 22.652 236.71 22.776 237.326 23.024C237.95 23.264 238.486 23.616 238.934 24.08C239.39 24.536 239.746 25.104 240.002 25.784C240.258 26.456 240.386 27.224 240.386 28.088C240.386 28.424 240.35 28.648 240.278 28.76C240.206 28.872 240.07 28.928 239.87 28.928H231.746C231.77 29.696 231.874 30.364 232.058 30.932C232.25 31.5 232.514 31.976 232.85 32.36C233.186 32.736 233.586 33.02 234.05 33.212C234.514 33.396 235.034 33.488 235.61 33.488C236.146 33.488 236.606 33.428 236.99 33.308C237.382 33.18 237.718 33.044 237.998 32.9C238.278 32.756 238.51 32.624 238.694 32.504C238.886 32.376 239.05 32.312 239.186 32.312C239.362 32.312 239.498 32.38 239.594 32.516L240.194 33.296ZM253.137 22.844V35H250.989V29.312H245.157V35H243.009V22.844H245.157V27.692H250.989V22.844H253.137ZM266.961 22.844V35H264.825V26.744C264.825 26.584 264.833 26.412 264.849 26.228C264.865 26.044 264.885 25.86 264.909 25.676C264.837 25.836 264.765 25.984 264.693 26.12C264.621 26.256 264.545 26.38 264.465 26.492L258.597 34.472C258.509 34.6 258.397 34.724 258.261 34.844C258.133 34.956 257.989 35.012 257.829 35.012H256.533V22.856H258.681V31.112C258.681 31.264 258.673 31.432 258.657 31.616C258.641 31.792 258.621 31.972 258.597 32.156C258.669 32.004 258.741 31.864 258.813 31.736C258.885 31.6 258.957 31.476 259.029 31.364L264.897 23.384C264.985 23.256 265.097 23.136 265.233 23.024C265.369 22.904 265.517 22.844 265.677 22.844H266.961ZM276.734 28.52V24.284H274.694C274.238 24.284 273.854 24.352 273.542 24.488C273.23 24.616 272.978 24.784 272.786 24.992C272.602 25.192 272.47 25.42 272.39 25.676C272.31 25.924 272.27 26.172 272.27 26.42C272.27 27.076 272.51 27.592 272.99 27.968C273.47 28.336 274.126 28.52 274.958 28.52H276.734ZM278.774 22.844V35H276.734V29.876H275.798C275.574 29.876 275.386 29.896 275.234 29.936C275.09 29.968 274.962 30.016 274.85 30.08C274.746 30.144 274.654 30.228 274.574 30.332C274.494 30.428 274.41 30.54 274.322 30.668L271.658 34.256C271.522 34.512 271.354 34.7 271.154 34.82C270.962 34.94 270.678 35 270.302 35H268.814L272.342 30.416C272.63 29.936 273.01 29.616 273.482 29.456C272.866 29.376 272.346 29.232 271.922 29.024C271.498 28.816 271.15 28.572 270.878 28.292C270.614 28.004 270.422 27.688 270.302 27.344C270.182 27 270.122 26.652 270.122 26.3C270.122 25.884 270.202 25.468 270.362 25.052C270.53 24.636 270.794 24.268 271.154 23.948C271.514 23.62 271.978 23.356 272.546 23.156C273.122 22.948 273.818 22.844 274.634 22.844H278.774Z" fill="white"/>
<path d="M318.644 26C308.88 28.1226 296.356 38.5 296.356 38.5L296.356 13.5C296.356 13.5 308.88 23.0283 318.644 26Z" fill="white"/>
</svg>
